<?xml version="1.0" standalone="no"?>
<!DOCTYPE svg PUBLIC "-//W3C//DTD SVG 20010904//EN"
 "http://www.w3.org/TR/2001/REC-SVG-20010904/DTD/svg10.dtd">
<svg version="1.0" xmlns="http://www.w3.org/2000/svg"
 width="468pt" height="181pt" viewBox="0 0 468 181"
 preserveAspectRatio="xMidYMid meet">
<metadata>
Created by POTRACE VERSION, written by Peter Selinger 2001-2007
</metadata>
<g transform="translate(0,181) scale(0.024000,-0.024000)"
fill="#000000" stroke="none">
<path d="M5195 7461 c-5 -5 -42 -11 -80 -12 -39 -2 -76 0 -82 4 -7 4 -72 2
-145 -6 -73 -8 -149 -14 -168 -14 -19 -1 -64 -6 -100 -12 -36 -7 -99 -16 -140
-20 -41 -5 -130 -23 -197 -40 -74 -19 -132 -29 -148 -25 -14 3 -31 2 -38 -3
-6 -6 -32 -15 -57 -21 -25 -6 -79 -16 -120 -22 -41 -7 -86 -20 -100 -29 -14
-10 -46 -20 -72 -23 -26 -3 -66 -15 -88 -27 -23 -12 -50 -19 -60 -16 -10 3
-37 -2 -61 -11 -24 -9 -57 -22 -74 -29 -16 -7 -48 -18 -70 -25 -22 -7 -70 -28
-107 -46 -36 -18 -95 -41 -130 -51 -35 -10 -78 -28 -97 -40 -19 -13 -44 -23
-56 -23 -12 0 -29 -7 -36 -16 -7 -9 -38 -27 -69 -41 -30 -13 -102 -47 -159
-76 -57 -28 -106 -58 -109 -66 -3 -7 -43 -31 -89 -53 -45 -21 -83 -43 -83 -47
0 -4 -12 -13 -27 -20 -15 -7 -64 -37 -108 -66 -45 -30 -87 -66 -95 -79 -7 -14
-26 -28 -41 -31 -16 -4 -29 -10 -29 -14 0 -4 -20 -22 -45 -40 -26 -18 -45 -40
-45 -51 0 -10 -13 -28 -29 -39 -16 -12 -36 -21 -44 -21 -8 0 -26 -9 -40 -20
-14 -11 -28 -20 -31 -20 -3 0 -29 -17 -57 -37 -28 -20 -59 -49 -69 -65 -9 -15
-36 -42 -61 -60 -24 -18 -60 -44 -80 -58 -20 -14 -61 -53 -90 -88 -30 -34 -65
-65 -79 -69 -14 -3 -31 -10 -38 -16 -7 -5 -19 -24 -28 -42 -8 -18 -28 -39 -44
-45 -18 -8 -37 -28 -49 -54 -12 -23 -47 -62 -80 -90 -33 -27 -65 -61 -71 -77
-7 -16 -27 -40 -45 -53 -18 -14 -40 -33 -49 -42 -9 -8 -16 -28 -16 -44 0 -18
-9 -35 -24 -47 -13 -10 -26 -28 -30 -40 -4 -12 -16 -25 -26 -28 -10 -3 -33
-22 -49 -41 -17 -19 -31 -44 -31 -55 0 -11 -10 -24 -25 -31 -13 -6 -42 -35
-65 -65 -22 -30 -40 -62 -40 -73 0 -11 -14 -35 -31 -54 -17 -19 -46 -45 -64
-56 -21 -13 -36 -32 -40 -50 -3 -16 -13 -34 -21 -41 -8 -6 -14 -16 -14 -21 0
-6 -18 -32 -40 -59 -23 -26 -49 -51 -59 -54 -10 -3 -26 -25 -35 -48 -9 -24
-16 -57 -16 -74 0 -25 -6 -35 -27 -45 -16 -8 -31 -28 -39 -51 -8 -22 -27 -54
-44 -73 -16 -19 -32 -47 -35 -62 -4 -15 -13 -42 -21 -60 -8 -18 -14 -42 -14
-53 0 -11 -7 -34 -16 -50 -8 -17 -31 -48 -50 -69 -24 -27 -37 -51 -38 -75 -2
-20 -12 -46 -23 -58 -11 -12 -25 -32 -31 -43 -6 -12 -18 -41 -26 -65 -8 -24
-20 -96 -27 -159 -6 -63 -11 -126 -11 -140 0 -14 3 -59 7 -100 3 -41 12 -88
19 -105 8 -16 35 -72 60 -123 31 -61 62 -106 92 -135 25 -23 69 -57 96 -76 35
-23 64 -35 92 -36 22 -1 54 -7 69 -14 16 -6 57 -11 93 -11 35 0 83 -5 106 -11
35 -10 59 -9 128 5 47 10 91 22 97 28 7 6 37 12 66 14 28 2 77 11 107 20 30 9
68 23 83 31 15 8 34 13 41 10 6 -3 23 1 37 9 13 7 37 13 53 14 16 0 37 6 45
14 9 8 58 28 108 45 51 16 109 43 130 59 21 17 83 53 138 82 55 28 107 57 115
64 8 7 58 30 110 52 74 31 108 52 160 100 39 36 92 73 133 92 37 18 67 36 67
40 0 4 15 24 33 43 18 18 49 47 68 62 19 15 49 39 67 53 17 14 32 32 32 39 0
7 12 21 27 30 15 10 62 53 105 96 43 43 78 83 78 88 0 5 23 33 50 62 28 29 50
58 50 65 0 6 7 17 15 24 8 7 15 19 15 27 0 9 14 31 30 50 17 18 30 41 30 49 0
8 12 39 26 67 14 29 36 67 50 86 14 20 24 48 24 68 0 19 12 59 26 90 26 54 26
59 19 183 -4 71 -4 138 0 149 3 11 21 29 39 41 18 11 45 20 58 20 14 0 35 9
48 20 17 15 37 20 79 20 31 0 86 6 123 14 37 8 80 24 95 36 17 13 35 19 49 16
12 -3 66 3 119 13 53 10 105 27 115 36 14 13 39 18 97 19 54 1 86 7 103 19 15
10 44 16 71 15 25 0 58 6 75 14 16 9 54 21 84 27 30 7 65 18 78 24 19 9 25 8
32 -3 6 -8 10 -22 10 -30 0 -8 -9 -37 -19 -65 -15 -41 -17 -59 -9 -100 5 -27
12 -72 17 -100 4 -28 26 -84 49 -127 23 -42 42 -83 42 -90 0 -7 14 -26 30 -41
17 -16 30 -33 30 -37 0 -5 -13 -28 -29 -52 -17 -24 -47 -54 -68 -68 -21 -13
-75 -57 -119 -97 -45 -40 -85 -73 -91 -73 -5 0 -27 -17 -50 -37 -22 -21 -52
-46 -67 -56 -14 -10 -26 -26 -26 -35 0 -10 -16 -24 -38 -34 -20 -10 -67 -39
-103 -66 -37 -26 -81 -61 -98 -77 -17 -17 -41 -40 -53 -53 -13 -13 -65 -64
-115 -114 -62 -61 -112 -99 -150 -118 -32 -15 -64 -34 -72 -43 -7 -10 -19 -17
-25 -17 -7 0 -30 -15 -52 -33 -21 -18 -57 -45 -79 -59 -22 -15 -62 -47 -88
-71 -27 -24 -74 -57 -105 -72 -32 -16 -76 -46 -99 -67 -24 -21 -61 -45 -83
-54 -22 -9 -46 -24 -53 -33 -6 -10 -37 -25 -67 -35 -30 -10 -77 -32 -103 -48
-27 -17 -60 -48 -73 -68 -21 -32 -23 -39 -12 -68 11 -28 10 -33 -7 -47 -13 -9
-46 -15 -90 -16 -38 -1 -77 -1 -85 0 -8 2 -70 3 -137 3 -67 0 -157 -6 -200
-13 -43 -6 -98 -13 -123 -15 -25 -2 -74 -7 -110 -12 -36 -5 -118 -17 -184 -26
-65 -9 -127 -22 -137 -30 -10 -7 -30 -29 -44 -50 -14 -20 -25 -43 -25 -51 0
-8 9 -24 20 -35 11 -11 33 -20 48 -20 15 0 33 5 39 11 9 9 20 9 44 0 17 -6 50
-11 73 -11 23 0 61 -7 85 -16 25 -8 63 -15 85 -14 23 1 46 1 52 1 6 -1 16 -12
22 -26 6 -14 18 -25 25 -25 8 0 26 9 40 20 24 19 36 20 119 16 51 -3 110 -8
131 -12 20 -3 37 -10 37 -15 0 -5 -8 -9 -18 -9 -10 0 -27 -7 -38 -15 -10 -8
-26 -15 -35 -15 -9 0 -24 -9 -34 -20 -10 -11 -24 -20 -32 -20 -7 0 -22 -9 -32
-19 -15 -15 -18 -28 -14 -67 3 -27 9 -56 14 -65 5 -9 30 -22 56 -28 26 -7 56
-20 65 -28 12 -10 59 -20 135 -29 65 -8 138 -20 163 -28 25 -8 74 -20 110 -27
36 -7 103 -13 150 -14 60 -1 94 -6 117 -18 17 -10 71 -22 119 -28 49 -6 106
-9 128 -6 30 4 46 1 65 -14 19 -15 34 -19 61 -14 22 4 78 -2 138 -15 55 -11
127 -20 159 -19 32 1 112 -1 178 -3 66 -3 129 -2 140 2 12 5 39 0 68 -11 26
-10 69 -18 95 -18 26 0 141 -2 256 -5 114 -4 226 -10 248 -15 25 -6 50 -6 65
0 17 6 33 4 54 -7 21 -10 41 -13 62 -8 18 4 48 8 67 10 19 2 71 4 115 4 44 0
145 -2 225 -6 80 -4 157 -6 173 -5 15 0 41 1 57 1 17 0 47 0 68 0 20 0 96 0
167 0 72 0 225 0 340 0 116 0 239 5 275 11 36 6 81 11 100 11 19 0 120 -2 224
-5 132 -4 194 -3 203 5 10 8 20 8 39 -1 14 -6 42 -11 62 -11 20 0 50 7 67 16
28 14 32 14 68 -6 29 -17 46 -20 70 -15 18 4 59 7 92 7 33 0 86 -3 117 -7 39
-5 68 -3 88 5 25 10 34 10 55 -4 22 -15 38 -15 134 -6 78 8 121 8 149 1 25 -7
49 -8 64 -2 13 5 82 10 153 12 79 2 153 -2 190 -10 34 -7 79 -10 105 -6 25 3
74 8 110 10 36 2 108 -3 160 -12 62 -10 188 -16 365 -18 149 -2 301 -9 339
-15 37 -6 100 -11 140 -11 39 1 85 0 101 0 17 -1 140 -1 275 0 135 0 259 0
275 0 17 -1 50 -5 75 -10 25 -5 106 -12 180 -15 74 -3 178 -7 231 -9 53 -1
110 -6 125 -9 16 -3 97 -8 179 -11 83 -3 206 -7 275 -10 69 -3 191 -7 271 -9
81 -2 152 -7 159 -11 8 -5 61 -7 119 -6 58 1 111 7 118 12 7 7 40 6 95 -2 46
-7 97 -11 113 -9 17 2 50 3 75 2 25 0 82 -3 127 -5 44 -3 86 -7 91 -11 6 -3
59 -9 119 -13 59 -4 140 -7 178 -7 39 0 99 2 135 3 36 2 145 1 242 -2 137 -5
185 -10 210 -23 25 -13 46 -15 97 -9 36 3 104 7 151 7 47 1 108 -2 135 -7 28
-4 55 -11 60 -16 6 -4 28 -4 49 1 26 6 64 4 118 -7 62 -11 90 -12 124 -4 23 6
78 11 121 11 45 0 84 -5 90 -11 8 -8 72 -12 185 -14 116 -1 182 -6 200 -15 21
-10 34 -10 55 -2 16 7 54 9 88 6 33 -3 96 -6 140 -8 54 -1 101 -9 145 -25 36
-13 94 -25 130 -26 36 -2 102 -6 148 -9 45 -3 91 -10 102 -16 10 -6 47 -15 82
-21 35 -5 86 -13 113 -17 28 -4 56 -11 63 -15 6 -5 12 -14 12 -21 0 -7 -11
-23 -24 -35 -16 -15 -31 -20 -47 -16 -13 3 -58 -2 -99 -11 -41 -9 -118 -20
-170 -24 -52 -4 -124 -12 -160 -18 -36 -6 -105 -17 -155 -24 -49 -6 -162 -14
-250 -17 -88 -2 -191 -5 -230 -5 -38 0 -177 3 -308 6 -144 4 -243 11 -251 17
-7 6 -69 13 -137 15 -68 2 -197 7 -285 10 -109 3 -178 10 -211 21 -36 12 -60
14 -89 7 -21 -4 -75 -5 -119 -1 -44 5 -161 15 -260 23 -99 8 -187 15 -195 16
-8 0 -67 2 -130 4 -63 2 -218 7 -345 11 -126 4 -266 8 -310 10 -44 1 -111 7
-150 13 -38 6 -97 11 -130 12 -33 0 -110 1 -172 1 -76 -1 -125 4 -155 15 -33
12 -64 14 -133 9 -49 -3 -104 -11 -120 -17 -24 -8 -41 -7 -80 7 -31 11 -103
21 -190 27 -77 5 -166 9 -197 8 -32 0 -66 4 -76 9 -10 6 -79 13 -153 16 -74 3
-231 7 -350 10 -122 2 -229 9 -245 15 -16 6 -63 12 -104 14 -41 1 -85 -2 -97
-7 -15 -7 -38 -5 -70 3 -26 7 -97 14 -158 15 -60 1 -141 8 -180 14 -38 7 -115
11 -170 10 -64 -2 -108 1 -122 9 -14 8 -24 8 -28 2 -4 -6 -35 -7 -80 -3 -52 4
-79 2 -89 -6 -12 -10 -20 -10 -38 1 -13 7 -77 16 -143 21 -66 4 -165 9 -220
11 -55 1 -102 4 -105 5 -3 1 -34 4 -70 6 -36 2 -132 5 -215 8 -82 3 -199 8
-260 11 -60 4 -125 12 -142 17 -18 6 -43 7 -55 3 -12 -3 -146 -5 -297 -4 -152
2 -296 2 -321 0 -25 -1 -58 -2 -75 -2 -16 0 -52 4 -80 7 -27 4 -118 9 -202 10
-83 2 -160 8 -171 14 -13 7 -90 10 -210 8 -150 -2 -192 1 -206 12 -11 9 -20
11 -27 4 -6 -6 -30 -6 -67 -1 -31 5 -126 11 -210 12 -86 2 -158 8 -164 14 -6
6 -54 8 -128 5 -75 -4 -135 -2 -162 5 -24 7 -157 14 -297 17 -140 3 -281 10
-313 17 -45 9 -71 9 -118 0 -32 -7 -71 -10 -85 -6 -22 5 -33 -1 -75 -47 -28
-30 -60 -73 -72 -95 -21 -41 -21 -43 -4 -69 11 -17 49 -42 99 -65 69 -32 97
-39 177 -45 57 -5 109 -15 130 -25 24 -12 73 -19 158 -24 67 -4 148 -14 180
-23 43 -11 119 -15 308 -17 202 -1 255 -4 269 -16 13 -11 54 -14 174 -16 91
-1 166 -6 178 -12 11 -6 65 -13 119 -16 55 -2 106 0 115 5 11 5 34 3 64 -7 25
-9 61 -14 78 -12 18 3 57 2 87 -2 30 -5 100 -15 155 -25 55 -9 152 -17 215
-17 66 -1 133 3 157 10 28 8 49 9 60 3 10 -5 86 -16 168 -25 108 -11 160 -13
185 -6 19 5 50 10 67 10 18 0 50 -9 70 -20 20 -10 39 -18 42 -17 3 2 19 9 34
17 23 12 34 12 60 1 18 -7 61 -15 97 -19 36 -3 90 -5 120 -4 30 1 105 1 165 1
61 0 135 -5 166 -11 45 -8 62 -7 84 4 25 13 32 13 67 -4 30 -15 61 -19 147
-19 74 0 121 5 145 15 20 8 38 11 41 7 2 -5 37 -12 77 -16 40 -4 222 -10 403
-12 182 -3 345 -5 363 -4 17 0 44 1 60 2 15 1 110 1 212 0 102 0 203 -1 225
-2 22 -1 59 -1 83 -1 23 0 58 0 77 0 19 0 79 -1 133 -1 53 -1 111 0 127 1 17
0 100 0 185 -2 85 -2 187 -4 225 -6 39 -2 113 0 165 4 52 4 203 9 335 12 132
3 254 6 270 6 17 0 66 -2 110 -5 55 -3 97 0 135 11 43 12 63 12 100 3 25 -6
99 -11 165 -12 78 -1 129 2 143 10 12 7 27 9 33 6 5 -4 36 -10 67 -15 41 -6
76 -4 125 8 53 13 74 14 98 5 21 -8 39 -9 60 -1 20 7 33 7 42 -1 8 -6 76 -12
158 -14 108 -3 155 -1 189 11 31 10 49 11 61 4 9 -6 80 -14 157 -18 98 -5 155
-3 184 5 35 10 53 9 98 -4 30 -9 98 -21 150 -26 52 -6 123 -12 158 -14 34 -2
70 -9 79 -16 8 -8 56 -16 107 -20 53 -4 119 -17 158 -31 37 -12 68 -29 68 -36
0 -7 -20 -25 -45 -41 -25 -16 -67 -32 -93 -37 -26 -4 -58 -9 -72 -10 -14 -1
-72 -9 -130 -18 -58 -9 -170 -21 -249 -25 -79 -5 -172 -6 -207 -3 -39 3 -75 0
-93 -7 -24 -10 -40 -10 -88 4 -44 12 -84 15 -154 12 -51 -3 -98 -5 -104 -6 -5
0 -122 3 -260 5 -137 3 -257 10 -268 15 -12 7 -29 7 -50 0 -18 -5 -45 -10 -62
-10 -16 0 -66 0 -110 1 -44 0 -87 0 -95 -1 -8 0 -47 -4 -86 -7 -58 -5 -73 -3
-87 11 -14 13 -42 18 -140 21 -67 2 -196 7 -287 10 -91 3 -208 7 -260 9 -52 3
-106 5 -120 6 -14 0 -81 7 -150 14 -69 8 -177 17 -240 21 -63 3 -124 8 -134
10 -10 2 -33 8 -50 13 -17 6 -38 9 -46 8 -8 -1 -43 2 -77 6 -40 5 -70 4 -82
-3 -14 -7 -59 -7 -148 -1 -93 7 -142 16 -177 31 -26 12 -53 19 -61 16 -7 -2
-55 -1 -107 4 -51 5 -194 12 -318 15 -124 4 -229 10 -234 13 -6 3 -69 7 -140
9 -72 2 -149 4 -171 4 -22 0 -76 0 -120 -1 -43 0 -84 5 -89 10 -6 6 -26 10
-46 10 -19 0 -50 -4 -68 -9 -23 -7 -60 -6 -117 4 -62 10 -121 11 -227 5 -124
-7 -146 -6 -168 8 -21 14 -52 16 -185 14 -88 -2 -173 1 -190 6 -17 5 -64 5
-109 0 -52 -5 -83 -5 -90 2 -5 5 -27 10 -47 10 -20 0 -50 -7 -65 -15 -16 -8
-37 -15 -46 -15 -9 0 -20 5 -24 11 -4 6 -41 10 -98 9 -50 -1 -134 3 -186 7
-53 5 -106 6 -119 1 -14 -5 -32 -5 -40 -1 -9 4 -43 9 -76 11 -33 2 -110 3
-170 2 -61 -1 -122 3 -137 9 -18 7 -65 5 -161 -8 -74 -9 -141 -22 -149 -28 -7
-6 -27 -14 -44 -17 -17 -4 -48 -25 -69 -46 -22 -22 -45 -40 -51 -40 -7 0 -22
-12 -33 -26 -15 -19 -21 -41 -21 -76 0 -27 7 -62 15 -78 9 -17 20 -30 24 -30
5 0 22 -11 38 -24 17 -15 48 -27 78 -31 28 -4 69 -13 93 -21 23 -8 64 -14 90
-14 26 -1 72 -9 102 -20 37 -13 82 -19 136 -20 60 0 85 -4 94 -15 10 -12 39
-15 139 -15 77 0 131 -4 138 -11 7 -7 22 -7 50 1 30 9 63 9 143 -1 58 -7 161
-14 230 -16 79 -2 139 1 163 9 27 8 44 9 55 2 10 -6 46 -11 81 -12 43 -1 72 3
88 13 12 8 27 15 32 15 6 0 36 -12 68 -26 l57 -26 85 16 c75 14 100 15 191 4
58 -7 133 -12 167 -10 40 1 76 9 102 23 36 19 46 20 93 9 29 -6 97 -11 150
-11 54 1 141 3 195 6 55 3 109 11 126 20 17 8 40 15 53 15 13 0 25 -4 28 -9 3
-4 25 -12 48 -16 24 -5 99 -7 168 -6 69 2 131 8 137 13 9 7 32 5 75 -6 58 -16
72 -16 179 -2 106 14 120 14 158 -1 38 -15 44 -15 80 2 34 15 46 16 88 6 27
-7 71 -11 98 -11 28 1 82 -1 120 -4 51 -3 77 0 96 11 20 12 33 13 64 4 21 -5
42 -8 46 -5 4 2 41 5 81 6 40 0 83 4 94 9 12 4 25 4 30 0 5 -5 50 -14 101 -21
74 -10 98 -10 123 0 21 9 38 10 58 2 15 -5 50 -15 77 -21 28 -6 84 -11 125
-10 41 0 149 -2 240 -5 91 -3 226 -10 300 -15 74 -5 216 -12 315 -16 99 -3
214 -10 255 -16 41 -6 149 -12 240 -14 131 -1 172 -5 197 -19 25 -12 56 -16
127 -15 75 2 101 -2 121 -15 20 -13 53 -18 133 -20 59 -2 122 -9 141 -16 29
-11 38 -10 61 3 27 16 29 16 65 -13 21 -17 45 -30 54 -30 9 0 30 -9 46 -20 17
-11 41 -20 54 -20 13 0 22 -3 18 -6 -3 -3 -41 -9 -84 -12 -43 -2 -130 -4 -193
-3 -63 2 -132 3 -152 3 -21 0 -95 0 -165 0 -71 0 -144 1 -164 2 -19 1 -42 7
-50 12 -8 5 -112 9 -232 10 -173 2 -224 5 -250 17 -25 12 -82 17 -240 21 -115
3 -214 9 -220 13 -6 4 -59 12 -117 19 -58 7 -155 13 -216 13 -61 1 -134 5
-163 11 -30 5 -61 6 -74 1 -13 -5 -65 -5 -122 1 -55 5 -134 11 -175 13 -41 2
-174 10 -295 17 -143 9 -228 11 -242 5 -15 -7 -42 -6 -80 3 -32 6 -94 12 -138
11 -44 -1 -127 4 -185 10 -58 6 -129 10 -159 9 -29 -1 -63 -5 -76 -10 -15 -6
-40 -4 -71 6 -31 10 -62 12 -84 8 -19 -4 -42 -8 -50 -9 -8 -1 -64 1 -125 5
-68 4 -119 3 -133 -4 -16 -7 -29 -7 -41 1 -9 6 -35 13 -56 17 -22 3 -60 3 -84
-1 -29 -6 -71 -3 -119 6 -61 12 -80 12 -109 2 -26 -10 -73 -11 -176 -6 -77 3
-144 8 -148 10 -3 3 -25 -3 -47 -12 -39 -15 -42 -15 -66 4 -23 18 -36 20 -118
16 -51 -3 -129 -6 -173 -6 -44 -1 -109 1 -144 5 -46 5 -72 3 -90 -7 -17 -8
-45 -11 -78 -8 -29 3 -63 3 -76 -1 -14 -3 -44 -21 -66 -40 -23 -19 -50 -38
-61 -41 -11 -4 -27 -19 -35 -35 -8 -16 -15 -45 -15 -65 0 -21 8 -50 17 -66 10
-17 28 -32 40 -35 13 -4 34 -3 47 0 18 4 36 -2 63 -20 21 -14 40 -29 43 -33 3
-4 28 -16 55 -26 33 -12 72 -18 116 -16 40 1 79 -4 102 -14 26 -11 52 -14 86
-9 26 3 73 1 104 -6 38 -7 67 -8 91 -2 22 6 38 6 44 0 5 -5 47 -13 93 -17 46
-4 97 -4 114 1 17 5 63 3 112 -4 62 -9 88 -9 107 0 20 9 34 8 67 -3 23 -8 64
-15 91 -15 27 0 62 -7 78 -15 16 -8 36 -12 44 -9 9 3 16 17 16 29 0 13 4 26 9
30 6 3 16 -7 23 -22 11 -24 19 -28 48 -26 19 2 44 3 55 2 11 0 72 -3 135 -5
63 -3 212 -6 330 -8 127 -2 227 -9 244 -15 22 -9 42 -9 82 0 45 10 58 9 87 -4
26 -13 42 -14 67 -7 18 5 44 7 56 4 13 -3 35 2 53 12 30 18 32 18 67 -1 29
-15 40 -17 67 -8 18 6 73 11 124 11 51 0 96 3 102 6 5 4 26 -1 46 -11 34 -16
37 -16 70 1 26 14 40 16 62 9 15 -6 37 -7 48 -3 10 4 63 5 116 2 96 -5 97 -4
114 22 10 14 23 26 30 26 8 0 17 -9 20 -20 3 -11 16 -22 28 -25 12 -3 82 -9
154 -13 73 -5 193 -5 265 0 73 5 143 14 154 20 16 7 32 7 60 -2 23 -8 64 -11
110 -7 45 3 85 1 104 -6 20 -8 41 -8 67 -1 22 5 59 6 88 1 28 -4 107 -8 177
-8 70 0 130 -3 133 -8 3 -5 53 -12 112 -16 88 -6 116 -12 150 -31 24 -14 53
-24 65 -23 13 1 31 1 41 1 9 -1 17 -6 17 -11 0 -6 -11 -21 -24 -35 -13 -15
-34 -26 -49 -26 -14 0 -29 -4 -32 -10 -3 -5 -17 -10 -30 -10 -13 0 -26 -4 -29
-9 -3 -5 -27 -14 -53 -20 -27 -7 -66 -20 -88 -30 -24 -11 -87 -23 -156 -30
-64 -6 -131 -16 -148 -22 -17 -6 -41 -9 -54 -5 -12 3 -53 0 -92 -5 -38 -6
-106 -13 -150 -15 -44 -2 -125 -5 -180 -7 -54 -2 -113 -1 -130 3 -16 3 -59 0
-94 -8 -55 -12 -68 -12 -100 1 -20 8 -74 20 -121 27 -47 6 -101 16 -120 22
-19 5 -83 13 -142 17 -74 6 -116 14 -134 26 -15 10 -63 21 -117 27 -51 5 -114
11 -142 12 -32 1 -69 12 -103 30 -35 19 -83 33 -148 42 -53 8 -112 21 -131 29
-20 8 -47 15 -62 15 -14 1 -37 7 -51 15 -16 9 -54 14 -110 14 -47 0 -101 -6
-120 -12 -34 -12 -35 -14 -33 -57 2 -32 8 -50 24 -63 14 -12 39 -17 77 -17 47
0 60 -4 85 -28 24 -23 38 -27 90 -29 34 0 109 -3 167 -6 58 -3 123 -10 145
-16 22 -6 49 -17 60 -25 14 -9 58 -16 126 -19 78 -3 113 -9 133 -22 23 -15 41
-17 125 -11 85 6 100 4 112 -10 7 -9 34 -26 59 -37 34 -15 70 -20 145 -21 68
-1 129 -9 190 -25 72 -19 105 -22 162 -17 40 3 94 2 120 -3 29 -6 88 -6 148 0
55 5 134 12 175 15 41 3 99 12 128 21 29 8 65 13 79 10 15 -3 52 3 82 14 31
10 85 25 121 34 36 9 86 20 111 25 26 4 65 18 87 29 23 12 57 21 76 21 20 0
59 11 88 24 29 13 87 49 128 79 41 31 81 61 88 69 7 7 23 29 36 48 12 19 25
43 29 52 4 11 -1 25 -13 36 -11 10 -41 23 -68 29 -26 6 -71 9 -100 6 -42 -5
-57 -2 -73 13 -12 11 -35 18 -57 17 -20 0 -46 -1 -57 -1 -11 -1 -58 3 -105 9
-47 6 -121 11 -165 10 -56 -1 -83 -6 -91 -16 -8 -11 -24 -13 -65 -8 -30 3 -59
10 -66 15 -6 5 -42 8 -80 8 -37 -1 -111 1 -163 5 -76 6 -106 4 -144 -9 -45
-16 -50 -15 -93 4 -25 11 -53 20 -62 20 -10 0 -26 -7 -37 -15 -10 -8 -28 -15
-39 -15 -11 0 -30 7 -42 15 -19 13 -25 12 -61 -7 -37 -21 -44 -21 -89 -10 -27
7 -57 10 -66 6 -10 -3 -41 1 -70 10 -44 14 -78 15 -197 10 -80 -3 -179 -6
-220 -5 -41 0 -98 -7 -128 -15 -48 -14 -55 -14 -77 0 -12 8 -43 15 -67 15 -23
0 -50 0 -58 0 -8 0 -35 -1 -60 -2 -25 -1 -56 -10 -70 -19 -13 -10 -30 -18 -36
-18 -6 0 -17 7 -24 15 -7 8 -20 15 -30 15 -9 0 -25 -9 -35 -20 -16 -17 -20
-18 -34 -6 -9 7 -26 18 -38 25 -16 8 -33 7 -70 -4 -43 -13 -52 -13 -91 2 -38
14 -55 15 -132 5 -83 -11 -91 -11 -124 9 -29 17 -38 18 -58 8 -13 -7 -41 -14
-63 -15 -22 -1 -54 -6 -72 -9 -26 -6 -33 -3 -42 14 -9 16 -21 21 -53 21 -27 0
-45 -6 -53 -17 -12 -15 -18 -16 -47 -5 -19 6 -45 12 -59 12 -13 0 -55 7 -93
17 -56 13 -74 14 -102 4 -26 -9 -38 -9 -56 0 -12 6 -51 14 -87 16 -36 2 -118
5 -181 7 -63 1 -124 7 -135 13 -12 6 -61 9 -123 6 -57 -2 -125 0 -150 6 -26 6
-65 14 -87 17 -22 3 -43 8 -46 10 -3 2 -20 -2 -38 -9 -25 -9 -36 -9 -53 2 -12
7 -34 17 -50 22 -15 4 -42 4 -59 -1 -23 -7 -43 -4 -82 11 -28 11 -73 24 -100
30 -27 5 -76 21 -108 35 -33 15 -58 32 -56 38 2 6 24 12 48 13 24 2 62 4 84 4
22 1 85 -1 140 -4 55 -3 111 -9 125 -12 14 -4 77 -1 140 6 63 7 149 11 190 10
41 -1 108 -6 149 -11 49 -7 119 -7 210 0 75 6 149 15 164 20 21 7 36 6 57 -5
19 -10 79 -16 191 -21 90 -3 171 -6 179 -6 8 0 65 4 125 11 100 10 117 9 180
-9 66 -18 74 -19 140 -4 39 9 80 20 93 25 13 5 30 9 38 9 8 0 36 -10 62 -21
36 -17 59 -20 102 -16 31 2 64 1 72 -4 9 -5 72 -12 140 -15 67 -4 204 -8 303
-9 99 -2 216 -8 260 -13 54 -7 103 -7 150 -1 55 8 87 7 150 -6 44 -9 97 -19
119 -22 21 -3 71 0 111 7 63 11 75 10 97 -4 17 -11 51 -16 123 -17 55 -1 109
-7 120 -12 11 -6 73 -11 138 -12 82 -1 124 3 135 12 10 7 24 13 33 13 8 0 28
-14 45 -31 29 -30 29 -30 134 -30 58 1 159 -1 225 -3 66 -2 156 -6 200 -10 44
-3 107 -10 140 -16 33 -5 103 -14 155 -19 59 -6 103 -5 120 1 17 6 43 6 82 -3
42 -8 61 -9 71 -1 8 7 77 12 178 13 141 2 167 5 184 20 11 10 37 25 57 34 22
9 44 28 53 45 8 16 15 52 15 79 0 39 -4 53 -19 61 -11 5 -26 16 -33 24 -8 7
-28 21 -45 30 -18 9 -54 16 -82 16 -27 0 -52 4 -55 9 -3 5 -28 16 -55 25 -27
9 -57 16 -67 16 -9 0 -38 -8 -64 -17 -46 -16 -48 -16 -84 7 -31 18 -59 24
-149 31 -62 4 -157 13 -212 19 -55 6 -120 9 -144 7 -34 -4 -51 0 -72 15 -24
18 -37 20 -84 14 -32 -3 -66 -11 -76 -17 -14 -7 -27 -5 -51 8 -25 13 -58 18
-134 18 -59 1 -114 7 -133 15 -25 10 -38 10 -57 1 -14 -6 -75 -11 -139 -11
-63 0 -116 4 -119 8 -3 5 -31 15 -63 22 -32 7 -62 17 -66 21 -5 4 14 10 42 14
28 4 77 4 109 1 31 -4 90 -9 129 -11 40 -3 84 -10 98 -15 14 -5 35 -6 48 -2
12 4 56 6 97 5 41 -2 127 -8 190 -14 63 -6 133 -10 155 -10 22 0 78 0 125 -1
47 -1 96 0 110 1 14 1 86 2 160 3 74 0 194 -1 266 -2 73 -2 137 0 142 4 6 4
35 9 64 12 29 3 67 6 83 6 17 1 89 5 160 10 72 5 159 17 195 28 36 10 92 26
125 35 48 14 70 27 109 68 31 31 79 65 128 90 48 24 89 53 105 73 14 19 23 41
19 49 -4 11 3 19 22 26 17 7 43 8 72 3 25 -5 74 -6 110 -3 37 4 74 2 87 -4 17
-7 31 -7 51 3 17 8 84 14 189 16 133 3 172 7 210 23 27 11 78 22 115 25 36 3
83 12 103 20 25 11 54 14 99 9 55 -5 68 -3 110 21 27 15 62 26 84 26 24 0 56
12 92 33 31 19 68 37 83 41 15 3 33 18 39 31 6 14 26 29 45 36 34 11 35 13 30
53 -3 22 -7 52 -9 66 l-3 25 130 0 c72 0 136 4 143 8 7 5 45 9 85 9 42 0 80 5
92 12 11 7 38 16 60 20 22 4 46 12 53 18 6 6 25 8 40 5 21 -4 53 7 128 43 54
28 104 50 110 50 6 0 18 8 27 18 10 10 17 27 17 37 0 10 -11 33 -25 51 -14 19
-50 45 -79 59 -29 14 -61 34 -71 45 -10 11 -28 20 -40 20 -12 0 -35 10 -50 22
-20 15 -43 22 -74 23 -40 0 -46 3 -49 23 -2 12 -14 29 -27 38 -14 9 -33 12
-49 8 -19 -4 -34 1 -62 24 -19 16 -43 28 -52 25 -10 -2 -55 1 -102 7 -47 7
-119 16 -160 20 -41 5 -97 13 -124 18 -31 6 -63 6 -84 0 -21 -6 -38 -6 -44 0
-5 5 1 18 16 33 14 13 26 34 26 47 0 12 -8 30 -19 41 -16 16 -31 18 -117 14
-55 -2 -126 -8 -159 -13 -33 -5 -160 -7 -283 -5 -123 3 -227 7 -232 10 -5 3
-132 5 -282 5 -150 0 -320 -3 -378 -7 -58 -4 -127 -6 -155 -4 -27 1 -84 2
-125 2 -41 0 -140 0 -220 0 -80 0 -273 2 -429 4 -155 3 -297 8 -315 13 -17 5
-105 7 -196 6 -91 -2 -237 -5 -325 -8 -99 -2 -193 1 -245 8 -47 7 -134 12
-195 10 -60 -2 -145 -3 -187 -3 -43 0 -89 4 -103 9 -14 5 -111 12 -216 15
-104 2 -193 6 -198 9 -4 3 -79 8 -167 12 -87 4 -238 9 -334 10 -96 2 -218 4
-270 6 -52 1 -120 1 -150 1 -30 -1 -104 1 -165 4 -60 3 -143 5 -182 4 -46 -1
-73 2 -73 9 0 6 8 13 18 16 9 3 41 15 70 26 29 11 63 28 75 38 12 9 35 20 52
24 16 4 56 25 89 47 32 21 63 39 70 40 6 0 30 15 52 32 23 18 59 45 80 61 22
17 53 48 69 70 20 27 40 42 58 44 17 2 50 27 94 71 38 37 80 75 96 84 15 10
27 24 27 32 0 8 16 33 36 55 20 22 48 46 62 53 14 6 33 24 41 38 9 15 34 51
57 80 22 30 56 85 75 122 22 45 44 75 66 88 19 12 36 34 43 54 6 20 21 40 32
46 11 6 26 25 33 43 8 18 21 38 29 46 9 7 16 18 16 26 0 7 13 28 28 46 16 18
39 55 52 83 13 27 39 65 57 85 18 20 46 71 63 112 16 42 30 80 30 85 0 5 16
24 35 43 19 19 35 38 35 42 0 5 24 51 54 103 30 51 57 107 61 123 3 17 14 46
24 65 10 19 27 47 39 62 12 15 22 41 22 57 0 16 6 31 15 34 8 3 26 25 40 49
14 24 25 49 25 55 0 7 11 25 25 42 14 16 25 42 25 58 0 19 9 35 25 49 20 15
35 18 63 14 20 -3 47 -16 59 -29 11 -13 37 -30 57 -38 19 -8 78 -17 129 -20
58 -3 108 -12 130 -22 29 -14 36 -23 40 -53 3 -25 -3 -51 -21 -86 -14 -27 -43
-79 -65 -115 -22 -36 -57 -85 -77 -110 -20 -25 -39 -53 -43 -62 -3 -10 -11
-18 -17 -18 -5 0 -10 -13 -10 -28 0 -18 -10 -37 -27 -54 -16 -13 -42 -35 -60
-47 -17 -12 -35 -32 -39 -44 -3 -12 -14 -31 -24 -42 -10 -11 -22 -32 -25 -47
-4 -17 -28 -43 -61 -68 -30 -22 -54 -45 -54 -50 0 -5 -27 -38 -60 -72 -33 -35
-60 -68 -60 -75 0 -7 -13 -27 -29 -46 -16 -18 -32 -44 -36 -58 -4 -17 -20 -32
-48 -45 -29 -13 -44 -28 -52 -50 -5 -17 -25 -44 -42 -59 -18 -15 -33 -33 -33
-40 0 -7 -9 -24 -21 -39 -11 -14 -25 -42 -30 -61 -6 -19 -20 -40 -33 -47 -13
-7 -44 -38 -70 -68 -25 -30 -61 -72 -79 -94 -17 -21 -40 -41 -49 -45 -9 -3
-27 -22 -40 -41 -15 -21 -39 -40 -65 -50 -22 -8 -68 -39 -101 -67 -33 -29 -65
-53 -69 -53 -5 0 -43 -27 -84 -60 -41 -33 -79 -60 -85 -60 -6 0 -17 -7 -24
-15 -7 -8 -25 -15 -39 -15 -15 0 -34 -6 -43 -12 -9 -7 -23 -30 -33 -50 -9 -20
-43 -62 -76 -92 -32 -31 -59 -62 -59 -69 0 -7 6 -21 13 -31 8 -10 31 -25 53
-32 21 -8 46 -14 55 -14 8 0 26 11 38 24 14 15 44 29 73 35 27 6 71 11 99 11
45 0 54 4 89 40 22 22 48 40 58 40 10 0 27 8 36 19 9 10 37 24 62 31 24 7 47
17 50 22 3 4 29 20 57 34 29 14 72 43 97 63 25 20 78 56 118 79 41 23 77 42
81 42 4 0 18 12 32 26 13 14 38 32 54 40 17 8 39 20 50 27 11 6 36 24 55 39
19 14 47 29 61 33 15 4 42 22 60 41 18 19 43 34 55 34 12 0 46 11 76 25 30 14
64 35 74 46 10 12 31 27 47 35 25 13 28 13 34 -3 4 -10 1 -19 -8 -21 -8 -3
-31 -23 -53 -46 -21 -23 -52 -59 -67 -80 -19 -25 -29 -51 -29 -73 0 -26 -8
-42 -29 -62 -15 -14 -31 -36 -35 -49 -4 -12 -19 -29 -34 -37 -15 -8 -37 -23
-50 -34 -12 -11 -25 -34 -29 -51 -3 -17 -13 -34 -22 -37 -9 -3 -29 -10 -45
-16 -16 -6 -44 -26 -63 -44 -24 -25 -33 -42 -33 -68 0 -18 3 -40 6 -49 3 -9
21 -25 40 -37 33 -20 36 -20 61 -4 15 10 49 18 83 19 40 2 75 12 122 34 35 18
70 32 76 32 7 0 12 4 12 10 0 5 10 19 23 31 12 11 40 33 61 48 21 14 48 31 58
37 11 6 31 23 46 36 15 14 39 28 53 31 14 4 36 16 49 27 13 11 30 20 38 20 8
0 29 12 47 28 17 15 45 35 61 44 16 10 36 22 44 27 8 6 38 20 65 32 30 13 72
45 107 80 31 33 65 59 75 59 10 0 33 13 51 30 18 16 38 30 44 30 5 0 29 20 54
45 24 25 52 45 63 45 11 0 35 13 53 28 18 16 62 51 99 79 36 28 74 53 85 57
10 3 45 30 77 60 32 29 71 56 88 60 19 4 39 20 60 50 25 34 41 47 74 55 30 7
55 25 88 60 27 28 70 61 104 76 32 16 64 36 71 47 7 10 38 36 68 59 32 24 54
47 54 59 0 10 12 28 27 40 24 18 28 19 42 6 13 -14 19 -11 58 24 23 22 51 40
62 40 11 0 26 6 33 13 7 7 25 20 40 30 15 9 37 35 47 56 17 33 26 39 63 45 23
4 48 12 55 18 7 6 13 18 13 28 0 9 22 31 49 48 27 18 53 32 59 32 5 0 15 7 22
15 7 8 21 15 30 15 10 0 31 14 47 30 15 17 49 44 74 60 25 17 56 30 68 30 13
0 28 11 39 30 10 16 29 38 43 49 13 10 45 31 71 45 26 14 54 26 62 26 9 0 16
-4 16 -9 0 -6 -28 -44 -61 -86 -34 -42 -79 -90 -101 -108 -21 -17 -52 -54 -68
-82 -16 -27 -42 -58 -59 -68 -16 -9 -32 -25 -35 -35 -4 -10 -38 -44 -76 -76
-39 -31 -70 -60 -70 -64 0 -4 -20 -30 -45 -57 -25 -28 -45 -53 -45 -57 0 -5
-6 -8 -14 -8 -8 0 -128 -115 -268 -255 -139 -141 -261 -263 -272 -273 -10 -9
-51 -50 -92 -89 -41 -40 -80 -73 -87 -73 -7 0 -25 -12 -39 -27 -14 -16 -30
-38 -36 -49 -6 -12 -25 -24 -41 -27 -20 -4 -61 -38 -125 -102 -53 -53 -96
-100 -96 -105 0 -6 -25 -24 -55 -41 -30 -17 -58 -35 -61 -40 -3 -5 -21 -16
-41 -24 -19 -8 -42 -15 -51 -15 -8 0 -38 -11 -66 -24 -28 -13 -74 -44 -101
-68 -28 -23 -56 -51 -63 -61 -8 -10 -31 -29 -53 -43 -37 -23 -39 -27 -39 -76
0 -39 6 -59 26 -85 21 -28 31 -33 65 -33 25 0 55 9 82 26 23 15 52 35 64 47
12 11 29 17 37 14 9 -4 16 -14 16 -22 0 -10 7 -15 18 -13 13 2 19 17 24 65 4
38 14 69 25 81 10 11 45 50 78 87 33 37 78 85 100 107 22 21 52 46 68 54 15 8
27 19 27 24 0 5 31 33 70 64 38 30 82 68 96 85 15 18 39 38 54 46 15 8 44 37
64 64 19 28 52 59 73 70 21 11 152 133 292 271 140 138 273 266 295 285 23 19
65 58 93 87 29 29 90 94 136 143 47 50 140 148 208 219 68 71 154 160 192 197
37 38 67 73 67 79 0 6 32 41 71 78 39 37 79 83 90 104 10 21 28 42 39 48 11 6
31 31 46 55 14 25 29 45 33 45 5 0 31 22 59 49 29 28 52 54 52 59 0 5 12 19
26 33 15 13 37 41 51 62 13 21 34 42 47 48 12 6 28 25 34 42 7 20 27 40 52 55
22 12 40 26 40 31 0 4 57 66 126 137 69 71 131 140 139 154 7 14 13 51 13 83
0 49 -2 57 -19 57 -10 0 -37 -10 -60 -22 -24 -12 -59 -40 -78 -61 -20 -22 -42
-53 -50 -69 -8 -16 -24 -33 -35 -38 -12 -4 -34 -23 -51 -42 -16 -19 -43 -52
-59 -74 -16 -21 -47 -58 -70 -82 -23 -24 -52 -53 -65 -65 -13 -12 -51 -47 -85
-78 -33 -31 -89 -81 -124 -110 -35 -30 -91 -74 -125 -98 -34 -24 -84 -63 -110
-87 -27 -24 -53 -44 -59 -44 -5 0 -23 -14 -41 -30 -18 -17 -39 -32 -49 -35 -9
-3 -21 -19 -26 -35 -8 -22 -20 -31 -51 -40 -23 -6 -58 -25 -79 -42 -20 -18
-57 -51 -82 -74 -25 -24 -61 -50 -80 -58 -19 -8 -56 -33 -82 -55 -25 -23 -50
-41 -55 -41 -4 0 -31 -19 -58 -41 -28 -23 -59 -45 -70 -50 -11 -5 -37 -22 -58
-37 -21 -15 -43 -39 -50 -52 -8 -15 -23 -26 -38 -28 -15 -2 -56 -28 -93 -58
-36 -30 -66 -59 -66 -64 0 -6 -5 -10 -11 -10 -6 0 -48 -24 -92 -54 -45 -30
-98 -66 -117 -79 -19 -13 -69 -46 -110 -73 -41 -27 -96 -68 -122 -91 -27 -23
-61 -49 -77 -58 -16 -8 -63 -38 -104 -67 -41 -29 -90 -62 -108 -73 -19 -11
-55 -32 -81 -46 -26 -14 -62 -39 -81 -56 -18 -16 -51 -40 -73 -53 -21 -13 -41
-27 -44 -31 -3 -3 -16 -10 -30 -14 -14 -4 -48 -23 -77 -41 -29 -19 -55 -39
-58 -44 -4 -6 -27 -22 -53 -36 -26 -13 -65 -38 -87 -55 -22 -16 -67 -43 -99
-60 -33 -17 -83 -48 -110 -69 -28 -20 -78 -51 -111 -69 -33 -17 -73 -42 -88
-55 -15 -13 -41 -29 -58 -36 -22 -10 -33 -10 -41 -2 -9 9 -8 18 0 37 7 14 12
34 12 44 0 9 20 41 45 70 25 29 45 57 45 63 0 6 13 27 30 47 16 20 41 47 55
61 14 15 25 37 25 53 0 16 8 30 20 37 11 6 38 35 60 64 21 30 60 74 86 98 25
24 73 58 107 75 34 18 67 33 72 33 6 1 26 14 45 30 19 17 39 30 45 30 6 0 24
14 40 30 16 17 39 30 50 30 12 0 39 11 59 25 20 14 40 25 45 25 4 0 16 9 27
21 10 12 40 32 65 44 25 13 52 31 59 40 8 9 37 32 65 49 27 18 56 40 64 49 7
9 30 21 51 27 23 6 52 26 73 49 19 21 42 43 50 47 8 5 31 23 52 39 21 17 52
41 68 55 16 13 36 39 43 57 8 18 18 33 22 33 5 0 19 19 32 43 13 23 34 50 47
60 13 10 23 24 23 31 0 7 9 21 20 31 11 10 31 41 44 69 13 28 34 74 46 102 12
29 19 57 16 63 -4 6 1 25 10 42 15 31 15 34 -11 84 -17 34 -35 55 -49 59 -12
3 -38 1 -58 -4 -20 -6 -46 -18 -59 -28 -13 -10 -40 -26 -60 -35 -20 -9 -42
-23 -48 -31 -7 -8 -38 -29 -69 -47 -31 -17 -84 -53 -117 -80 -33 -26 -76 -62
-95 -79 -19 -16 -48 -43 -65 -60 -16 -16 -50 -53 -75 -83 -25 -30 -54 -60 -66
-65 -12 -6 -39 -31 -60 -57 -21 -26 -55 -63 -74 -83 -19 -20 -74 -82 -122
-136 -49 -55 -88 -105 -88 -111 0 -6 -16 -25 -35 -42 -19 -17 -35 -38 -35 -46
0 -8 -16 -29 -35 -45 -19 -17 -53 -55 -76 -84 -22 -29 -57 -74 -76 -100 -19
-27 -39 -48 -44 -48 -4 0 -23 -13 -41 -28 -18 -15 -62 -45 -98 -66 -36 -22
-76 -49 -90 -62 -14 -12 -50 -39 -80 -59 -30 -20 -69 -39 -87 -42 -18 -3 -43
-18 -57 -34 -14 -16 -38 -32 -53 -35 -16 -4 -58 -24 -94 -45 -36 -21 -77 -50
-90 -63 -13 -14 -27 -26 -30 -26 -4 0 -22 -7 -40 -15 -19 -8 -50 -25 -70 -37
-20 -13 -61 -40 -91 -60 -30 -21 -85 -52 -123 -69 -37 -16 -74 -28 -81 -25 -8
3 -14 14 -14 25 0 11 12 29 27 41 15 11 34 33 44 48 9 15 47 59 85 99 38 39
86 92 107 116 20 25 37 50 37 56 0 7 11 16 25 21 13 5 40 33 60 63 20 30 49
64 65 76 17 12 30 27 30 34 0 8 28 40 63 72 34 32 67 67 74 79 7 12 12 31 13
43 0 13 13 31 33 44 17 13 35 28 39 34 4 7 25 24 47 39 23 17 48 46 61 72 11
25 38 64 59 87 21 23 43 52 50 64 6 12 11 30 11 40 0 10 20 38 44 63 24 25 69
69 100 99 31 30 56 60 56 67 0 8 9 19 21 26 11 7 36 36 55 65 19 28 60 73 91
100 32 26 66 57 75 68 10 11 21 31 24 44 5 17 1 28 -14 40 -15 12 -21 31 -24
79 -4 56 -8 66 -43 102 -22 22 -48 40 -60 40 -11 0 -40 9 -64 21 -25 11 -72
22 -105 26 -34 3 -83 14 -110 25 -27 11 -64 31 -82 46 -18 15 -44 35 -59 45
l-26 19 5 166 c5 143 4 168 -10 183 -12 13 -15 28 -9 56 3 21 9 64 12 95 5 56
4 58 -26 75 -17 10 -34 26 -37 36 -3 9 -12 17 -19 17 -8 0 -35 -14 -60 -31
-25 -17 -54 -43 -63 -57 -9 -15 -29 -37 -44 -50 -17 -14 -30 -37 -33 -60 -3
-20 -8 -46 -10 -58 -3 -11 -28 -47 -57 -79 -29 -32 -105 -111 -169 -174 -64
-64 -124 -130 -132 -147 -9 -18 -31 -43 -49 -57 -18 -15 -39 -32 -45 -39 -7
-7 -32 -35 -55 -62 -24 -27 -86 -90 -138 -140 -51 -50 -115 -112 -140 -137
-25 -25 -56 -50 -70 -54 -14 -4 -69 -41 -123 -82 -76 -57 -112 -77 -159 -89
-33 -9 -81 -27 -106 -40 -25 -13 -50 -24 -57 -24 -7 0 -25 -10 -41 -22 -15
-13 -46 -33 -68 -45 -23 -13 -78 -41 -124 -63 -45 -22 -88 -40 -94 -40 -6 0
-53 -20 -105 -45 -51 -25 -102 -45 -113 -45 -11 0 -20 6 -20 13 0 6 16 28 36
47 19 19 38 47 41 62 3 16 15 36 27 46 11 10 32 33 45 52 13 19 30 42 37 50 8
8 31 36 51 62 21 26 46 58 56 72 10 14 35 36 57 48 21 12 46 35 54 50 9 15 25
29 35 33 11 3 31 21 45 40 14 18 26 37 26 42 0 4 20 28 45 53 24 25 66 68 92
97 27 28 61 69 76 90 15 21 41 58 57 83 16 25 30 53 30 62 0 9 -4 20 -10 23
-5 3 -10 14 -10 23 0 9 -4 24 -10 32 -8 12 -14 12 -45 -3 -20 -9 -43 -17 -52
-17 -9 0 -31 -17 -50 -37 -18 -21 -40 -51 -49 -68 -9 -16 -31 -46 -49 -65 -19
-19 -47 -48 -63 -65 -16 -16 -57 -64 -92 -105 -34 -41 -70 -86 -79 -100 -9
-13 -34 -43 -56 -65 -22 -22 -65 -71 -95 -109 -30 -38 -82 -96 -116 -130 -33
-33 -77 -72 -98 -86 -21 -14 -41 -29 -46 -35 -5 -5 -23 -27 -41 -47 -18 -22
-40 -38 -53 -38 -11 0 -43 -19 -69 -43 -27 -23 -75 -65 -107 -94 -32 -29 -76
-61 -97 -72 -21 -10 -46 -29 -55 -40 -10 -12 -24 -21 -31 -21 -8 0 -24 -11
-37 -25 -13 -14 -44 -35 -69 -47 -25 -12 -62 -36 -82 -54 -20 -17 -52 -35 -70
-39 -19 -4 -56 -18 -84 -30 -27 -13 -80 -37 -116 -53 -37 -16 -69 -35 -73 -41
-4 -6 -22 -11 -39 -11 -18 -1 -48 -10 -67 -20 -19 -11 -55 -29 -80 -40 -25
-12 -70 -35 -100 -51 -30 -17 -74 -39 -97 -50 -23 -10 -52 -32 -65 -48 -13
-15 -44 -40 -69 -54 -25 -15 -49 -27 -52 -27 -4 0 -7 9 -7 21 0 13 25 46 63
82 34 34 68 73 76 87 7 14 20 47 28 75 8 27 23 60 33 73 11 13 24 48 30 77 6
30 15 57 20 60 5 3 14 23 20 44 5 21 34 90 64 154 30 63 68 130 84 149 16 18
34 43 40 54 6 12 28 29 49 38 21 10 56 27 78 38 22 12 57 36 78 55 20 18 42
33 47 33 6 0 15 11 22 25 6 14 33 35 64 50 30 15 88 55 129 91 42 35 80 64 85
64 5 0 18 16 27 35 10 19 39 47 64 63 27 17 58 50 75 77 16 27 44 64 62 83 17
19 39 48 47 66 8 17 33 55 55 84 22 29 40 59 40 67 0 8 5 25 11 38 9 19 7 31
-6 56 -9 18 -30 40 -47 51 -24 14 -43 17 -82 14 -28 -3 -78 -17 -111 -32 -33
-14 -87 -43 -121 -64 -33 -21 -71 -52 -83 -68 -12 -17 -44 -41 -71 -55 -28
-14 -50 -29 -50 -33 0 -4 -18 -32 -40 -61 -22 -29 -52 -62 -65 -73 -14 -11
-32 -35 -39 -53 -8 -17 -42 -63 -76 -101 -35 -38 -69 -84 -77 -102 -7 -18 -20
-35 -27 -38 -7 -3 -27 -27 -45 -53 -17 -27 -31 -56 -31 -65 0 -8 -12 -30 -27
-48 -16 -18 -38 -54 -51 -79 -13 -25 -36 -60 -52 -78 -17 -18 -30 -38 -30 -46
0 -7 -12 -28 -27 -46 -15 -17 -41 -38 -58 -46 -16 -7 -50 -25 -75 -39 -25 -14
-56 -35 -70 -48 -14 -13 -40 -32 -57 -42 -18 -10 -33 -22 -33 -26 0 -4 -6 -8
-14 -8 -8 0 -16 -7 -19 -15 -4 -8 -21 -21 -39 -30 -18 -8 -49 -26 -68 -39 -19
-14 -43 -32 -52 -40 -9 -8 -34 -24 -55 -35 -21 -10 -53 -32 -71 -48 -19 -15
-53 -47 -78 -70 -24 -23 -54 -45 -66 -49 -12 -3 -39 -19 -61 -35 -22 -16 -46
-29 -54 -29 -7 0 -13 5 -13 10 0 6 30 46 66 88 36 42 86 100 111 129 26 28 52
64 59 80 7 15 49 66 94 113 45 47 101 114 125 150 23 36 57 83 74 104 25 31
30 46 26 68 -5 22 -2 30 12 35 10 3 30 15 46 25 15 11 27 26 27 35 0 8 22 39
49 69 27 30 52 67 56 82 4 20 17 34 41 45 19 9 39 28 44 41 6 18 19 26 48 31
29 5 66 27 128 77 49 38 119 90 157 115 37 26 73 55 78 65 5 10 27 29 47 43
20 13 55 38 77 55 22 16 56 38 75 47 19 10 48 27 63 38 15 11 78 68 138 128
61 59 114 107 117 107 4 0 28 14 54 32 26 18 51 43 57 55 6 13 16 23 23 23 7
0 44 35 83 78 38 42 87 94 107 114 21 21 38 44 38 53 0 8 4 15 9 15 6 0 31 18
58 40 26 21 60 51 76 65 15 14 27 36 27 49 0 13 8 30 18 38 9 8 24 18 33 21 9
3 19 17 23 31 3 14 21 47 38 73 18 26 38 54 45 61 7 7 13 23 13 34 0 12 11 40
24 62 13 23 49 68 80 101 34 36 56 69 56 83 0 15 -10 29 -30 40 -16 9 -34 29
-39 45 -7 19 -17 27 -34 27 -13 0 -36 -9 -50 -20 -14 -11 -39 -23 -56 -26 -18
-4 -40 -17 -50 -30 -13 -17 -29 -24 -52 -24 -22 0 -55 -14 -94 -40 -33 -21
-80 -54 -104 -72 -24 -18 -70 -55 -102 -82 -33 -26 -67 -62 -75 -78 -9 -17
-34 -50 -56 -74 -25 -27 -38 -49 -34 -59 5 -14 9 -14 33 -1 16 8 37 23 47 35
11 12 29 21 41 21 12 0 40 13 61 30 22 16 52 41 67 55 22 20 34 24 55 18 15
-5 48 -7 74 -6 41 2 50 -1 63 -21 15 -22 15 -28 1 -53 -8 -15 -24 -36 -35 -45
-11 -10 -35 -43 -52 -74 -21 -36 -43 -61 -64 -71 -25 -12 -47 -41 -94 -124
-34 -60 -67 -109 -72 -109 -5 0 -16 -15 -25 -33 -9 -19 -31 -42 -50 -52 -18
-10 -36 -26 -39 -36 -3 -10 -21 -23 -40 -29 -23 -8 -44 -26 -64 -58 -17 -26
-35 -51 -40 -57 -4 -5 -19 -19 -32 -30 -13 -11 -46 -37 -74 -57 -27 -21 -57
-38 -66 -38 -9 0 -37 -19 -62 -42 -25 -24 -65 -59 -89 -79 -24 -19 -69 -48
-101 -65 -32 -16 -77 -48 -100 -71 -23 -24 -47 -43 -54 -43 -7 0 -28 -13 -46
-30 -19 -16 -42 -30 -51 -30 -9 0 -16 -4 -16 -10 0 -5 -9 -14 -21 -20 -11 -7
-27 -9 -35 -6 -13 5 -12 10 2 38 9 18 25 44 35 57 11 13 19 31 19 40 0 9 22
38 49 65 27 26 52 59 55 72 4 15 14 24 25 24 11 0 27 7 35 16 9 8 16 24 16 35
0 11 10 34 23 51 12 18 37 45 55 61 17 16 39 44 48 62 8 18 33 50 54 71 30 29
40 47 40 71 0 17 -6 33 -12 36 -7 2 -25 -2 -40 -10 -16 -7 -28 -18 -28 -23 0
-5 -19 -32 -42 -61 -24 -28 -78 -87 -120 -131 -43 -44 -78 -86 -78 -93 0 -8
-27 -42 -60 -76 -33 -34 -60 -68 -60 -76 0 -7 -8 -26 -17 -41 -10 -15 -26 -37
-38 -48 -11 -12 -32 -37 -47 -55 -16 -19 -39 -48 -53 -65 -14 -18 -25 -37 -25
-42 0 -6 -18 -32 -40 -57 -22 -25 -40 -54 -40 -64 0 -10 -20 -37 -44 -59 -24
-22 -57 -47 -72 -55 -16 -8 -40 -27 -54 -42 -14 -15 -41 -35 -60 -45 -19 -10
-44 -27 -54 -39 -11 -12 -24 -21 -31 -21 -6 0 -23 -20 -39 -44 -19 -30 -40
-48 -67 -59 -36 -14 -39 -18 -33 -43 7 -27 6 -27 -31 -21 -35 6 -41 3 -85 -43
-27 -28 -53 -50 -59 -50 -6 0 -30 -17 -54 -39 -23 -21 -57 -46 -74 -55 -18 -9
-33 -23 -33 -30 0 -8 -32 -33 -71 -57 -39 -23 -73 -48 -76 -55 -2 -7 -17 -18
-33 -24 -16 -7 -36 -23 -45 -36 -8 -13 -30 -31 -48 -40 -17 -9 -68 -51 -112
-92 -44 -41 -106 -92 -138 -113 -32 -21 -70 -53 -84 -69 -14 -17 -38 -37 -53
-45 -15 -8 -65 -51 -111 -95 -46 -44 -89 -80 -96 -80 -6 0 -24 -13 -40 -30
-15 -16 -38 -30 -51 -30 -13 0 -34 -11 -47 -25 -14 -13 -25 -28 -25 -34 0 -5
-14 -12 -31 -16 -17 -4 -33 -4 -36 -1 -3 3 5 21 18 41 13 19 31 37 40 40 9 3
39 33 68 66 28 34 51 65 51 70 0 5 5 9 11 9 6 0 30 17 53 37 22 21 46 48 53
60 7 13 25 37 40 53 15 17 43 45 62 63 19 18 55 54 80 82 25 27 60 63 76 80
17 16 36 41 43 55 7 14 38 52 68 85 30 33 71 84 90 113 20 29 48 61 63 72 14
11 43 37 64 57 20 21 40 48 43 61 4 12 10 22 14 22 4 0 24 21 44 48 20 26 61
74 90 107 30 33 75 84 100 113 25 29 46 57 46 62 0 5 30 40 68 79 37 38 88 94
114 123 26 30 58 69 71 88 14 19 50 62 82 95 31 33 63 72 71 87 7 15 22 29 33
33 10 3 51 42 90 86 39 44 71 85 71 91 0 6 6 19 14 27 7 9 20 39 30 68 9 28
16 58 16 66 0 8 -10 17 -22 21 -13 3 -55 6 -95 6 -62 0 -75 -3 -102 -25 -16
-14 -40 -42 -53 -63 -12 -20 -29 -45 -38 -55 -8 -10 -35 -39 -60 -64 -25 -25
-60 -52 -78 -59 -18 -8 -42 -30 -53 -48 -11 -19 -33 -39 -50 -46 -16 -7 -41
-27 -54 -44 -14 -17 -34 -40 -44 -51 -10 -11 -24 -30 -30 -42 -7 -13 -20 -23
-31 -23 -11 0 -26 -12 -34 -27 -8 -16 -59 -68 -114 -117 -55 -48 -114 -97
-132 -107 -17 -11 -36 -33 -42 -49 -6 -18 -17 -30 -27 -30 -10 0 -50 -33 -89
-73 -39 -41 -86 -84 -104 -96 -18 -13 -49 -44 -68 -70 -19 -25 -68 -77 -110
-114 -41 -38 -85 -78 -97 -90 -13 -12 -23 -30 -23 -40 0 -10 -11 -22 -25 -27
-14 -5 -30 -21 -35 -35 -5 -14 -16 -25 -24 -25 -8 0 -30 -15 -48 -34 -18 -18
-47 -41 -65 -50 -17 -8 -34 -25 -38 -36 -4 -11 -23 -28 -43 -38 -20 -9 -49
-36 -66 -61 -16 -24 -49 -58 -74 -75 -24 -17 -99 -85 -166 -151 -67 -66 -129
-132 -139 -147 -10 -16 -26 -28 -37 -28 -10 0 -25 -8 -32 -18 -7 -10 -33 -32
-58 -47 -25 -16 -62 -44 -83 -62 -20 -18 -46 -33 -56 -33 -11 0 -40 -24 -66
-55 -26 -30 -53 -55 -60 -55 -6 0 -29 -12 -50 -28 -22 -15 -59 -48 -84 -73
-26 -25 -75 -65 -111 -90 -36 -25 -80 -53 -99 -62 -19 -9 -40 -17 -48 -17 -10
0 -12 6 -7 22 3 12 12 28 19 35 7 7 23 28 35 48 12 19 25 35 30 35 4 0 25 23
47 51 21 27 53 71 71 97 18 25 56 70 83 100 28 30 61 72 74 92 13 21 33 44 43
52 11 7 22 22 26 34 3 11 50 65 104 120 54 54 105 110 114 124 9 14 40 52 69
84 30 33 87 95 127 140 41 45 93 101 116 126 23 25 59 71 81 102 21 32 53 71
71 88 19 17 34 35 34 40 0 5 21 29 47 54 26 25 50 46 55 46 4 0 17 18 28 39
14 28 28 41 49 46 16 3 47 22 69 41 22 19 43 47 47 63 5 22 16 32 49 45 25 10
49 27 56 42 8 14 42 48 77 76 35 29 63 58 63 65 0 7 11 18 24 24 13 6 34 30
47 54 13 23 49 62 79 87 30 24 72 66 92 94 22 29 50 53 69 60 17 6 37 20 43
32 6 11 23 30 39 42 15 12 34 37 42 56 8 19 18 34 23 34 4 0 18 9 30 20 12 12
22 32 22 45 0 15 -6 25 -15 25 -8 0 -21 13 -30 30 -8 16 -15 40 -15 53 0 13 9
36 20 50 11 14 20 29 20 34 1 4 14 24 30 43 17 19 30 45 30 58 0 12 10 37 22
55 13 18 33 44 46 58 15 17 27 48 33 85 5 33 12 73 15 91 5 25 1 37 -19 57
-15 14 -35 26 -46 26 -10 0 -45 -13 -76 -30 -31 -16 -63 -30 -69 -30 -7 0 -21
-9 -31 -20 -10 -11 -22 -17 -26 -14 -5 3 -9 18 -9 33 0 15 -5 43 -12 62 -6 19
-19 45 -29 59 -9 14 -20 48 -23 77 -6 46 -4 52 14 58 11 3 30 3 42 -1 12 -3
76 -8 142 -9 67 -2 133 -3 148 -4 16 -1 46 -17 73 -41 36 -31 54 -40 84 -40
20 0 41 -4 47 -9 5 -4 31 -16 58 -25 27 -9 63 -16 78 -16 18 0 27 -4 23 -11
-4 -5 -1 -24 5 -40 7 -17 26 -37 43 -45 20 -11 33 -12 40 -5 7 7 6 20 -3 43
-7 18 -32 52 -54 76 -36 38 -45 43 -74 38 -28 -4 -34 -1 -42 20 -6 14 -27 33
-52 44 -24 11 -59 30 -78 43 -27 17 -50 22 -105 22 -38 1 -80 6 -92 13 -12 7
-44 15 -70 19 -26 3 -61 12 -77 20 -15 8 -47 14 -70 12 -22 -1 -52 -1 -65 0
-14 0 -42 19 -67 45 -27 28 -45 58 -49 80 -4 19 -4 39 -1 45 3 5 19 12 36 16
19 4 40 22 63 54 19 26 44 68 55 94 13 30 34 55 61 72 22 15 52 42 66 60 16
21 25 47 25 69 0 22 9 45 25 64 14 17 25 38 25 48 -1 11 -21 37 -46 58 l-46
39 -52 -18 c-28 -10 -67 -26 -86 -36 -19 -9 -66 -34 -104 -53 -39 -20 -76 -42
-84 -48 -8 -7 -18 -22 -23 -35 -5 -15 -17 -23 -32 -23 -13 0 -34 -11 -47 -25
-13 -14 -27 -25 -31 -25 -5 0 -25 -11 -45 -25 -20 -14 -43 -25 -51 -25 -8 0
-26 9 -40 20 -15 12 -41 20 -63 20 -29 0 -41 6 -54 25 -10 15 -26 25 -40 25
-13 0 -37 12 -53 28 -17 15 -41 32 -54 38 -13 7 -52 24 -87 39 -35 15 -100 32
-145 39 -45 7 -111 24 -147 38 -36 15 -92 29 -125 32 -33 3 -85 9 -115 14 -30
4 -65 14 -78 20 -16 9 -32 10 -57 3 -20 -5 -48 -6 -63 -1 -16 4 -80 10 -143
14 -63 4 -148 9 -189 12 -45 3 -79 1 -85 -5z m51 -158 c19 -12 59 -18 162 -22
75 -4 142 -9 147 -13 6 -3 78 -7 160 -9 83 -1 168 -6 190 -11 22 -5 49 -13 60
-18 11 -5 38 -11 60 -14 22 -2 83 -10 135 -17 64 -8 102 -17 115 -29 11 -10
40 -26 65 -36 25 -10 56 -25 70 -35 14 -9 43 -20 66 -23 28 -4 53 -17 82 -44
23 -22 42 -44 42 -50 0 -7 -14 -34 -31 -62 -17 -27 -36 -50 -42 -50 -7 0 -57
-43 -111 -95 -54 -52 -102 -95 -107 -95 -4 0 -11 -10 -14 -21 -4 -12 -26 -39
-49 -60 -25 -24 -51 -39 -66 -39 -14 0 -59 -7 -100 -16 -41 -9 -113 -27 -160
-42 -47 -14 -101 -32 -120 -40 -19 -8 -64 -28 -100 -44 -36 -17 -76 -36 -90
-43 -14 -7 -39 -16 -57 -19 -17 -4 -37 -13 -43 -21 -6 -8 -26 -17 -43 -20 -18
-3 -45 -11 -62 -17 -16 -6 -43 -21 -60 -33 -16 -12 -52 -32 -80 -44 -27 -13
-68 -36 -90 -51 -22 -15 -58 -38 -80 -53 -22 -14 -53 -31 -70 -39 -16 -7 -50
-27 -75 -45 -25 -18 -56 -42 -69 -53 -13 -12 -37 -28 -54 -37 -17 -8 -45 -29
-63 -47 -17 -17 -62 -58 -98 -91 -36 -33 -75 -63 -86 -67 -12 -4 -27 -23 -35
-42 -8 -19 -21 -39 -28 -43 -8 -4 -39 -42 -70 -83 -31 -41 -61 -80 -66 -86 -5
-6 -59 -28 -120 -48 -60 -20 -118 -36 -128 -36 -10 0 -31 -9 -48 -20 -16 -11
-39 -20 -50 -20 -11 -1 -38 -8 -60 -16 -22 -9 -98 -24 -170 -35 -71 -11 -159
-24 -195 -29 -36 -5 -99 -17 -140 -26 -41 -9 -97 -23 -125 -31 -31 -9 -67 -13
-96 -9 -30 4 -61 1 -89 -9 -23 -8 -69 -15 -102 -15 -58 0 -61 1 -106 48 -26
26 -66 69 -89 95 -27 30 -50 47 -65 47 -16 0 -28 10 -38 33 -8 18 -30 40 -49
49 -18 9 -45 28 -60 41 -14 14 -44 36 -67 50 -22 14 -57 30 -77 35 -20 6 -49
19 -64 30 -15 10 -80 35 -143 56 -63 20 -140 42 -170 48 -30 5 -111 14 -180
19 -69 6 -183 12 -255 15 -71 3 -134 9 -138 14 -5 4 8 26 30 49 21 23 45 48
53 57 8 8 51 49 95 91 44 42 110 98 147 125 37 27 77 61 88 75 11 14 20 33 20
42 0 11 21 23 73 38 60 19 81 31 122 73 27 27 54 50 60 50 5 0 32 16 59 35 27
19 53 35 58 35 5 0 23 10 40 23 18 12 45 36 60 54 16 18 39 35 51 39 12 4 39
22 60 40 20 19 45 34 56 34 10 0 39 16 64 35 25 19 49 35 52 35 4 0 18 9 32
20 14 11 37 20 51 20 14 0 84 29 156 64 72 35 142 67 156 71 14 4 30 11 35 15
6 4 30 11 55 15 25 4 59 16 76 26 17 10 38 19 45 19 8 0 57 17 109 39 52 21
129 46 170 56 41 9 119 30 172 47 54 16 100 34 103 39 4 5 23 9 44 9 21 0 57
7 80 15 23 8 65 14 95 14 32 -1 63 5 77 14 13 9 44 21 69 27 25 7 68 12 95 11
28 -1 73 3 100 9 28 6 64 16 80 21 17 6 91 12 165 15 74 2 183 6 241 9 58 3
128 12 155 19 27 8 60 17 74 19 14 2 29 5 33 6 4 0 19 -6 33 -16z m1423 -617
c6 -7 9 -20 6 -28 -3 -8 -19 -15 -38 -15 -18 0 -53 -3 -79 -7 -39 -6 -48 -4
-48 8 0 8 12 24 28 35 18 13 43 20 73 21 28 0 51 -6 58 -14z m298 -131 c12 -8
26 -30 32 -48 6 -18 10 -56 9 -84 -2 -42 3 -57 25 -86 18 -24 28 -49 28 -74 0
-21 -4 -72 -10 -113 -5 -41 -8 -100 -5 -130 3 -30 -2 -95 -10 -145 -9 -49 -20
-114 -25 -144 -6 -30 -19 -64 -30 -75 -12 -12 -36 -54 -56 -94 -19 -40 -39
-72 -45 -72 -6 0 -19 -19 -29 -42 -11 -25 -49 -71 -88 -108 -38 -36 -90 -84
-116 -107 -26 -23 -47 -48 -47 -56 0 -7 -39 -49 -86 -93 -48 -43 -98 -89 -113
-102 -14 -12 -47 -40 -73 -63 -33 -28 -58 -41 -84 -44 -23 -2 -44 -11 -53 -24
-9 -11 -36 -27 -61 -36 -25 -8 -58 -22 -75 -29 -16 -8 -61 -26 -99 -40 -38
-15 -72 -24 -75 -21 -3 3 0 14 5 23 6 9 17 28 25 42 8 14 22 34 31 45 9 11 22
31 27 45 6 14 30 50 52 80 22 30 51 71 63 90 13 20 47 61 75 92 28 31 51 61
51 67 0 6 23 37 50 68 28 32 61 69 74 83 12 14 33 38 44 54 12 16 27 47 33 69
6 22 20 48 32 58 12 10 27 19 32 19 6 0 33 26 60 57 28 31 62 69 78 86 15 16
27 36 27 43 0 8 -9 14 -21 14 -11 0 -35 -12 -52 -27 -17 -16 -53 -50 -80 -78
-27 -27 -83 -84 -123 -126 -41 -42 -74 -83 -74 -92 0 -9 -15 -27 -32 -41 -18
-14 -51 -48 -73 -77 -22 -28 -65 -81 -95 -118 -31 -36 -64 -83 -75 -103 -10
-20 -29 -39 -41 -42 -12 -3 -30 -18 -40 -33 -9 -16 -46 -63 -81 -105 -35 -43
-63 -80 -63 -84 0 -3 -9 -17 -20 -31 -11 -14 -20 -34 -20 -44 0 -10 -24 -43
-52 -73 -29 -30 -62 -56 -73 -60 -11 -3 -76 -10 -144 -16 -68 -6 -130 -15
-137 -21 -9 -7 -28 -6 -65 5 -30 9 -67 14 -85 10 -22 -4 -36 -1 -48 11 -11 11
-14 25 -10 39 3 11 15 30 25 42 11 11 19 23 19 26 0 2 18 24 40 47 23 24 52
60 66 82 13 21 29 39 34 39 5 0 15 18 21 41 7 22 24 48 37 57 13 10 31 24 40
33 10 9 35 40 57 69 22 28 55 67 74 85 26 25 34 41 35 71 1 30 -3 39 -18 42
-11 2 -26 -5 -35 -16 -9 -11 -31 -29 -50 -40 -18 -11 -43 -36 -55 -55 -11 -19
-49 -70 -83 -113 -34 -44 -77 -98 -95 -121 -18 -23 -44 -55 -58 -70 -14 -16
-51 -58 -83 -93 -32 -36 -61 -78 -64 -94 -4 -17 -18 -36 -37 -48 -24 -15 -42
-18 -81 -14 -38 4 -54 12 -68 31 -10 14 -26 25 -35 25 -10 0 -40 11 -68 24
-28 13 -54 29 -58 34 -3 6 -4 17 -1 24 3 8 21 22 39 31 19 8 74 57 122 108 49
51 125 127 168 168 44 42 93 90 110 107 17 18 71 73 121 124 75 77 89 97 87
121 -2 23 2 29 18 29 11 0 44 26 77 60 32 34 63 72 69 87 6 14 35 42 65 63 31
21 61 52 74 76 11 21 79 97 151 169 78 76 158 144 195 167 35 21 87 49 114 62
30 14 56 34 62 49 8 17 24 28 55 35 25 6 53 21 63 32 10 11 31 20 47 20 16 0
44 6 63 14 23 10 46 33 70 70 20 31 50 63 68 72 17 9 50 36 73 60 25 25 57 47
80 53 22 6 55 11 74 12 19 1 49 5 65 9 17 4 50 8 75 9 26 0 55 -5 67 -14z
m-587 -106 c-35 -34 -84 -74 -109 -90 -25 -16 -55 -29 -68 -29 -13 0 -23 5
-23 12 0 7 21 31 47 55 25 24 48 43 50 43 3 0 20 12 39 27 20 14 52 30 72 34
20 3 41 7 46 8 6 0 -19 -27 -54 -60z m-302 0 c2 -9 -20 -43 -47 -74 -28 -32
-51 -61 -51 -65 0 -3 -25 -33 -55 -66 -30 -32 -57 -67 -61 -76 -3 -10 -9 -18
-13 -18 -4 0 -32 -22 -61 -50 -30 -27 -66 -52 -80 -55 -14 -4 -41 -22 -60 -40
-19 -19 -73 -50 -120 -69 -46 -20 -90 -36 -97 -36 -7 0 -41 -16 -75 -35 -35
-19 -92 -49 -128 -66 -36 -18 -83 -39 -105 -49 -22 -9 -62 -25 -90 -35 -27 -9
-64 -22 -80 -28 -17 -7 -43 -22 -59 -34 -16 -13 -39 -23 -52 -23 -12 0 -35 -6
-51 -14 -15 -8 -53 -26 -84 -40 -31 -14 -63 -26 -71 -26 -9 0 -21 7 -28 15
-10 11 -6 25 19 68 17 30 39 58 50 63 10 5 37 25 59 46 22 20 44 43 48 51 5 8
41 39 79 68 39 30 83 61 99 69 16 8 35 25 44 38 8 12 56 43 107 68 50 25 114
62 141 83 27 20 65 46 84 58 19 12 58 29 85 38 28 10 57 23 65 30 8 8 37 23
63 34 27 12 61 21 76 21 16 0 53 14 84 30 31 17 69 30 84 30 16 0 78 25 138
55 61 30 117 54 125 52 8 -1 16 -10 18 -18z m1142 -389 c0 -11 -4 -20 -10 -20
-5 0 -10 9 -10 20 0 11 5 20 10 20 6 0 10 -9 10 -20z m-1692 -293 c2 -15 -1
-27 -6 -27 -5 0 -63 -55 -130 -122 -67 -68 -133 -139 -146 -158 -14 -19 -37
-53 -52 -75 -15 -22 -58 -70 -95 -106 -38 -36 -69 -71 -69 -76 0 -6 -12 -19
-27 -28 -16 -10 -45 -36 -67 -57 -21 -22 -50 -61 -63 -86 -14 -26 -30 -50 -37
-54 -6 -4 -21 -8 -34 -8 -13 0 -38 -15 -56 -32 -18 -18 -54 -48 -81 -67 -40
-28 -52 -32 -74 -25 -15 6 -43 35 -68 72 -23 34 -52 95 -64 135 -12 39 -22 83
-21 97 1 14 2 59 4 101 2 60 7 82 23 99 11 12 43 34 70 47 28 14 61 34 74 44
14 11 40 19 63 19 21 0 52 7 67 15 16 8 31 22 35 31 5 13 15 15 46 11 32 -4
48 0 75 19 20 13 49 24 65 24 16 0 68 20 114 45 47 25 95 45 105 45 11 0 23 5
26 10 3 6 16 10 27 10 11 0 51 19 87 41 36 23 75 50 86 60 11 9 36 19 55 22
19 2 42 4 50 3 9 -1 16 -13 18 -29z m-3487 -199 c20 -10 69 -25 109 -34 40 -8
105 -29 144 -45 42 -18 97 -33 136 -36 36 -3 73 -10 83 -15 10 -5 22 -20 27
-33 5 -14 27 -32 54 -45 25 -11 51 -20 58 -20 7 0 27 -9 45 -19 17 -11 34 -28
37 -38 3 -10 19 -25 35 -34 16 -9 31 -29 35 -45 6 -21 3 -32 -11 -42 -13 -10
-50 -13 -144 -10 -81 2 -131 -1 -140 -8 -8 -6 -25 -14 -38 -17 -13 -3 -34 -1
-48 4 -14 5 -62 12 -106 15 -45 3 -134 15 -197 28 -79 16 -139 22 -193 19 -65
-3 -85 0 -130 21 -28 13 -68 27 -87 30 -19 4 -58 10 -86 14 -29 4 -59 14 -68
21 -9 8 -39 24 -66 37 -27 13 -65 39 -85 58 -24 24 -37 48 -41 76 -6 39 -5 43
32 73 27 23 53 34 93 40 31 4 124 12 206 16 83 4 186 7 230 8 59 0 90 -5 116
-19z m9559 -103 c0 -8 16 -30 35 -49 28 -28 35 -43 35 -75 0 -28 -10 -53 -35
-90 -19 -28 -35 -56 -35 -63 0 -7 -11 -31 -25 -53 -13 -22 -25 -52 -25 -66 0
-15 -9 -48 -21 -75 -11 -27 -28 -65 -36 -84 -9 -19 -29 -48 -45 -64 -15 -17
-28 -38 -28 -48 0 -9 -16 -47 -36 -83 -20 -36 -42 -68 -49 -73 -7 -4 -22 -23
-33 -42 -13 -21 -19 -43 -16 -57 4 -16 -5 -39 -34 -81 -22 -33 -50 -81 -62
-108 -12 -27 -31 -67 -42 -88 -11 -22 -34 -58 -53 -80 -18 -23 -40 -58 -49
-80 -9 -21 -32 -56 -50 -77 -20 -21 -38 -54 -42 -74 -5 -27 -13 -39 -32 -46
-14 -6 -49 -36 -78 -67 -29 -31 -53 -62 -54 -68 0 -6 -31 -42 -70 -80 -38 -37
-70 -76 -70 -85 0 -9 -19 -33 -42 -53 -24 -19 -51 -43 -61 -53 -9 -10 -28 -29
-41 -43 -13 -14 -48 -46 -77 -71 -30 -26 -77 -59 -104 -73 -28 -15 -66 -37
-86 -49 -19 -12 -48 -32 -63 -44 -15 -12 -35 -25 -45 -28 -9 -3 -25 -18 -34
-35 -14 -22 -26 -30 -47 -30 -16 0 -39 4 -52 9 -14 5 -29 24 -36 45 -13 35
-12 38 17 72 22 24 31 45 31 69 0 23 8 42 23 57 13 13 30 37 36 55 11 28 10
39 -9 90 -12 32 -26 63 -32 70 -5 7 -24 16 -41 22 -18 5 -44 12 -59 15 -16 4
-28 12 -28 20 0 7 23 32 50 55 29 25 50 50 50 62 0 11 5 29 11 40 5 11 14 17
19 14 5 -3 20 -3 34 1 15 3 35 22 47 43 12 20 50 63 83 97 34 33 81 85 106
114 25 30 57 65 73 79 15 14 27 31 27 39 0 7 20 33 45 59 25 25 45 49 45 53 0
4 17 25 38 48 20 23 63 72 94 109 32 37 86 102 121 143 35 41 68 89 74 105 6
20 22 36 47 48 20 9 41 28 46 41 5 14 34 49 64 80 31 31 56 62 56 70 0 8 9 18
20 21 11 4 38 32 59 63 22 31 75 90 118 130 43 39 103 94 133 122 30 27 90 77
133 111 42 33 77 65 77 70 0 5 7 9 15 9 8 0 15 -7 15 -15z m-3890 -91 c0 -8
-12 -32 -27 -52 -16 -20 -38 -47 -50 -60 -13 -14 -23 -30 -23 -36 0 -6 -30
-41 -67 -77 -38 -36 -81 -82 -98 -103 -16 -21 -37 -45 -46 -54 -9 -9 -23 -30
-32 -47 -8 -16 -27 -41 -41 -54 -14 -14 -26 -28 -26 -33 0 -5 -19 -32 -42 -60
-24 -27 -73 -82 -110 -122 -39 -41 -67 -80 -68 -93 0 -11 -13 -33 -30 -46 -16
-14 -38 -28 -49 -32 -10 -3 -31 -25 -46 -48 -15 -23 -54 -68 -87 -100 -36 -36
-61 -70 -65 -88 -4 -21 -15 -34 -37 -43 -17 -7 -48 -31 -68 -54 -20 -22 -47
-59 -60 -81 -13 -22 -33 -46 -46 -53 -13 -7 -26 -24 -29 -38 -3 -19 -15 -30
-39 -39 -19 -7 -34 -16 -34 -21 0 -4 -25 -34 -55 -65 -30 -31 -55 -62 -55 -70
0 -7 -15 -24 -32 -36 -18 -13 -38 -29 -43 -36 -6 -8 -24 -17 -40 -21 -21 -6
-35 -19 -47 -44 -9 -19 -29 -43 -45 -53 -15 -10 -40 -29 -55 -44 -15 -14 -39
-38 -55 -53 -15 -15 -53 -45 -83 -68 -30 -22 -76 -51 -102 -63 -34 -15 -50
-30 -54 -47 -3 -14 -13 -40 -22 -59 -10 -18 -27 -37 -39 -42 -13 -5 -23 -12
-23 -16 0 -5 -27 -29 -61 -53 -33 -25 -72 -54 -86 -66 -25 -19 -25 -22 -12
-60 7 -21 20 -47 28 -57 8 -9 11 -20 8 -23 -3 -4 -61 -1 -129 6 -68 6 -150 13
-183 15 -33 2 -86 8 -118 13 -32 5 -63 14 -69 20 -8 8 -6 18 7 39 10 15 34 42
53 60 19 18 40 33 47 33 6 0 20 9 30 20 10 11 27 22 38 26 11 3 35 22 54 40
25 25 42 34 68 34 28 0 37 5 50 30 8 16 25 35 38 41 12 7 46 36 75 66 29 29
66 59 82 66 16 6 40 28 52 47 13 19 44 46 68 59 25 14 77 56 116 95 39 39 86
79 105 89 19 10 54 43 78 73 23 30 59 63 79 73 20 11 57 39 81 63 23 23 52 60
62 81 11 20 38 49 62 64 23 14 74 59 113 99 46 45 74 83 79 103 5 23 12 31 27
31 13 0 50 30 97 79 42 43 88 86 104 96 15 9 27 23 27 29 0 7 14 25 30 41 17
16 30 37 30 48 0 10 5 27 10 38 7 13 21 19 43 19 25 0 42 11 87 58 30 31 67
65 82 75 15 9 35 31 43 47 9 17 22 30 29 30 8 0 25 9 38 20 12 12 37 29 54 39
17 11 37 32 45 49 7 16 39 48 70 71 32 24 61 51 64 61 3 10 19 23 35 30 17 7
30 19 30 26 0 8 14 23 32 34 17 10 36 30 42 44 6 14 35 44 65 66 30 22 58 40
63 40 4 0 8 -7 8 -16z m-6493 -72 c12 -16 30 -45 39 -65 13 -26 28 -40 53 -48
20 -7 59 -24 86 -40 28 -15 70 -30 95 -34 25 -4 85 -20 133 -36 83 -27 90 -28
124 -14 19 8 44 15 54 15 10 0 27 -10 38 -22 14 -14 30 -20 53 -19 18 2 40 2
48 2 8 0 60 -2 115 -4 61 -2 109 -9 122 -17 19 -12 26 -11 56 5 34 18 36 18
63 0 23 -15 39 -17 103 -11 42 4 117 10 168 14 50 5 98 13 105 20 9 7 44 9
102 6 49 -2 96 -9 106 -14 10 -5 20 -26 24 -47 3 -21 8 -81 10 -133 3 -71 -1
-111 -15 -160 -10 -36 -24 -83 -31 -105 -7 -22 -32 -75 -55 -118 -24 -42 -43
-87 -43 -98 0 -12 -11 -34 -25 -51 -13 -16 -30 -47 -37 -69 -7 -26 -21 -45
-38 -54 -15 -8 -39 -30 -54 -49 -15 -20 -32 -51 -38 -69 -6 -17 -30 -53 -52
-79 -23 -27 -45 -48 -50 -48 -6 0 -27 -12 -49 -27 -21 -15 -52 -46 -67 -68
-16 -23 -55 -59 -87 -81 -31 -21 -77 -54 -102 -72 -24 -18 -66 -44 -93 -58
-26 -13 -48 -28 -48 -33 0 -5 -23 -25 -50 -45 -28 -20 -54 -36 -59 -36 -5 0
-14 -7 -21 -15 -6 -7 -36 -28 -66 -45 -29 -16 -59 -30 -65 -30 -7 0 -45 -16
-86 -35 -41 -19 -82 -35 -92 -35 -9 0 -37 -17 -61 -37 -24 -21 -60 -44 -79
-51 -20 -8 -61 -19 -92 -26 -31 -7 -62 -16 -69 -21 -7 -4 -29 -12 -49 -17 -20
-5 -58 -13 -86 -17 -27 -5 -77 -16 -110 -26 -50 -14 -91 -16 -258 -12 -184 5
-200 7 -235 29 -20 13 -53 30 -73 40 -23 10 -56 41 -88 84 -28 37 -51 71 -51
76 0 6 -10 24 -22 40 -12 17 -28 56 -36 87 -8 31 -14 75 -13 98 0 23 -3 52 -8
65 -5 14 -5 64 1 123 5 55 21 145 34 200 14 55 31 111 39 125 7 14 23 60 34
102 13 50 31 91 55 123 20 25 36 53 36 62 0 8 14 28 30 43 17 15 30 38 30 50
0 12 13 40 28 63 16 23 41 60 55 82 15 22 31 55 38 73 6 19 23 39 40 48 16 8
29 23 29 33 0 10 16 31 35 45 19 15 35 35 35 45 0 10 9 26 20 36 11 10 20 24
20 31 0 7 20 32 44 54 24 23 47 52 50 66 4 13 15 28 26 34 11 6 22 26 26 45 4
21 15 40 27 47 11 6 40 31 64 57 24 25 56 59 70 75 l26 29 21 -26 c12 -15 31
-39 43 -55z m7883 -189 c0 -15 -10 -37 -22 -50 -12 -13 -32 -23 -45 -23 -13 0
-31 -10 -41 -22 -9 -11 -34 -39 -54 -62 -21 -22 -38 -44 -38 -48 0 -5 -6 -8
-13 -8 -8 0 -24 -12 -38 -26 -13 -14 -40 -39 -60 -54 -19 -16 -47 -32 -62 -35
-23 -6 -27 -4 -27 13 0 12 5 24 10 27 6 3 10 15 10 27 0 11 13 32 28 46 15 15
39 45 52 67 13 22 46 63 74 90 28 28 65 57 81 65 17 7 53 16 80 20 28 3 53 4
58 2 4 -2 7 -15 7 -29z m4308 -201 c7 -5 15 -24 18 -43 4 -25 1 -39 -10 -48
-9 -7 -16 -18 -16 -23 0 -5 -15 -28 -34 -51 -18 -23 -41 -57 -50 -74 -9 -18
-23 -33 -30 -33 -8 0 -16 -6 -19 -14 -3 -8 -33 -33 -66 -55 -33 -23 -66 -49
-73 -60 -7 -10 -36 -30 -65 -45 -29 -14 -67 -38 -85 -53 -18 -16 -40 -32 -49
-38 -9 -5 -41 -29 -71 -52 -30 -23 -94 -60 -142 -83 -55 -26 -91 -39 -97 -33
-6 6 -2 19 11 35 11 15 20 35 20 47 0 13 18 32 53 55 37 24 60 49 72 76 10 22
25 42 34 45 9 4 34 29 56 56 22 28 53 63 68 79 16 16 33 32 38 37 5 4 33 37
63 73 31 37 88 89 131 118 48 33 86 52 104 52 16 0 39 9 52 20 13 10 35 19 49
20 14 0 31 -4 38 -8z m-2748 -215 c-11 -18 -31 -44 -45 -57 -14 -13 -25 -31
-25 -40 0 -9 -18 -31 -40 -49 -22 -18 -46 -46 -54 -64 -8 -18 -41 -63 -74
-102 -33 -38 -75 -86 -93 -105 -19 -19 -57 -63 -86 -97 -29 -34 -59 -77 -66
-97 -8 -23 -40 -59 -101 -110 -49 -42 -103 -92 -120 -113 -17 -20 -49 -55 -72
-77 -22 -23 -56 -55 -75 -73 -19 -17 -41 -39 -49 -48 -8 -8 -31 -29 -50 -45
-19 -17 -38 -30 -42 -30 -4 0 -14 -12 -22 -28 -8 -15 -37 -42 -64 -60 -28 -18
-70 -42 -94 -53 -24 -11 -74 -43 -113 -70 -38 -27 -93 -66 -122 -86 -29 -19
-55 -43 -58 -53 -3 -10 -23 -30 -45 -45 -22 -15 -40 -31 -40 -34 0 -4 -16 -13
-35 -20 -27 -9 -43 -26 -66 -67 -17 -30 -35 -57 -40 -60 -5 -3 -9 -15 -9 -28
0 -12 13 -35 29 -50 25 -24 35 -27 64 -22 19 4 56 23 83 44 26 20 61 49 77 65
16 15 51 34 78 43 28 9 66 33 89 55 22 21 40 46 40 54 0 8 22 32 49 52 28 21
70 53 95 72 25 18 46 39 46 45 0 7 15 27 34 45 32 31 39 33 81 28 26 -2 52
-10 58 -16 8 -8 8 -14 -1 -23 -7 -7 -12 -26 -12 -43 0 -17 -10 -46 -23 -65
-12 -19 -32 -57 -44 -85 -12 -27 -24 -57 -27 -65 -3 -8 -17 -33 -31 -55 -14
-22 -29 -49 -34 -60 -5 -11 -14 -39 -21 -62 -7 -23 -10 -54 -6 -70 4 -15 8
-35 9 -43 2 -13 -22 -15 -158 -16 -121 -1 -183 3 -255 17 -72 14 -104 17 -129
9 -22 -6 -48 -6 -70 0 -20 5 -58 9 -86 10 -27 0 -117 2 -200 4 -82 3 -165 5
-182 5 -18 1 -45 1 -60 2 -16 0 -55 2 -88 5 -33 3 -134 7 -225 9 -91 2 -208 6
-260 10 -52 3 -102 6 -110 6 -8 0 -51 -3 -96 -7 -53 -4 -88 -3 -101 5 -12 6
-103 14 -210 17 -137 5 -199 4 -225 -5 -28 -9 -42 -9 -59 -1 -11 7 -49 12 -82
13 -34 0 -87 -3 -117 -7 -36 -5 -65 -4 -85 4 -19 7 -126 13 -290 15 -143 3
-287 7 -320 10 -33 2 -85 1 -115 -3 -44 -6 -61 -4 -85 10 -20 11 -56 18 -105
19 -41 1 -85 -1 -97 -5 -13 -4 -23 -4 -23 1 0 4 28 21 61 37 34 17 73 45 90
65 16 20 53 54 84 76 30 22 55 45 55 50 0 6 11 22 25 37 14 15 48 35 75 45 31
11 72 38 106 70 30 29 64 55 74 58 10 3 21 14 24 23 3 9 40 42 81 72 59 43 80
66 100 108 25 50 27 52 66 52 34 0 46 6 72 35 17 19 39 35 49 35 10 0 35 11
56 25 20 13 46 40 56 60 10 19 50 57 88 85 37 27 68 54 68 59 0 5 23 23 50 41
28 18 50 36 50 42 0 5 12 21 28 35 15 14 55 43 90 65 34 22 62 46 62 53 0 8
31 35 69 60 53 36 71 53 73 73 2 22 9 28 40 33 21 3 48 14 60 25 13 10 46 42
73 70 28 28 81 68 118 89 38 21 71 44 74 52 3 7 21 20 40 28 20 8 40 15 45 15
5 0 6 -9 3 -21 -4 -11 -21 -41 -37 -66 -17 -24 -40 -55 -52 -68 -11 -13 -43
-50 -69 -83 -26 -33 -58 -79 -70 -103 -12 -24 -36 -53 -54 -64 -18 -11 -32
-24 -33 -30 0 -5 -19 -28 -42 -52 -24 -23 -59 -61 -78 -83 -19 -22 -43 -48
-53 -58 -10 -9 -24 -30 -32 -47 -7 -16 -33 -49 -57 -72 -23 -24 -66 -64 -95
-90 -29 -27 -59 -65 -67 -85 -9 -20 -29 -46 -45 -57 -16 -12 -34 -21 -40 -21
-6 0 -29 -11 -49 -25 -21 -14 -52 -43 -68 -65 -16 -21 -51 -51 -78 -66 -27
-15 -56 -33 -65 -41 -9 -8 -50 -40 -91 -72 -41 -31 -89 -63 -107 -70 -17 -7
-34 -19 -37 -26 -2 -7 -18 -16 -35 -20 -21 -4 -42 -22 -68 -58 -21 -28 -42
-57 -46 -64 -4 -7 -3 -21 2 -32 8 -14 7 -22 -4 -31 -8 -7 -15 -20 -15 -28 0
-9 14 -31 32 -49 20 -21 42 -33 58 -33 14 0 35 8 46 18 10 9 39 33 64 53 25
19 67 50 93 67 26 18 54 32 61 32 7 0 23 12 37 26 13 14 39 35 59 47 19 11 56
39 83 61 26 21 47 45 47 52 0 8 12 17 27 20 15 4 36 17 45 28 10 12 27 38 38
58 12 21 35 45 53 53 17 9 50 26 72 38 22 13 48 39 59 58 10 19 33 45 50 57
17 13 46 32 64 43 19 11 32 27 32 39 0 11 5 20 10 20 6 0 36 16 67 36 31 20
62 41 68 48 7 6 43 30 80 51 37 22 81 52 98 68 16 15 32 27 36 27 4 0 31 24
60 54 30 30 82 68 118 86 44 23 72 44 85 67 11 18 26 33 34 33 7 0 18 9 24 20
7 13 21 20 40 20 22 0 39 12 77 55 26 30 52 55 56 55 5 0 6 -15 2 -32 -4 -18
-16 -40 -27 -49 -12 -9 -24 -36 -29 -65 -5 -27 -17 -67 -26 -89 -10 -22 -32
-59 -50 -83 -25 -33 -31 -49 -27 -71 5 -21 -2 -39 -27 -74 -18 -26 -36 -47
-40 -47 -4 0 -22 -14 -40 -31 -18 -17 -46 -37 -63 -46 -17 -9 -37 -25 -45 -36
-7 -10 -27 -25 -44 -32 -17 -7 -53 -32 -80 -56 -27 -24 -75 -70 -106 -103 -31
-32 -76 -72 -101 -89 -25 -17 -47 -34 -50 -37 -3 -4 -38 -35 -77 -69 -40 -34
-94 -82 -120 -107 -27 -25 -62 -58 -80 -74 -17 -15 -36 -37 -42 -48 -6 -11
-11 -25 -11 -30 0 -5 19 -29 42 -52 40 -40 44 -41 86 -35 26 4 66 21 94 41 28
18 67 38 89 44 21 6 76 33 121 61 45 28 88 59 96 70 7 10 18 19 25 19 6 0 35
12 63 27 31 16 58 24 68 20 15 -6 17 -14 12 -43 -6 -28 -1 -46 23 -91 17 -31
31 -65 31 -75 0 -10 8 -22 18 -25 9 -4 29 -19 44 -35 24 -26 32 -28 101 -28
53 0 89 6 122 20 26 11 65 23 88 26 23 4 51 15 62 25 11 10 40 27 65 38 25 11
52 21 61 21 8 0 28 14 44 30 16 17 35 30 42 30 7 0 30 15 50 34 21 18 48 36
60 40 12 4 32 19 43 33 11 14 39 35 62 46 24 11 65 38 92 59 27 21 52 38 56
38 4 0 20 21 36 46 16 25 45 55 64 67 19 12 40 28 47 37 7 8 13 23 13 33 0 10
15 24 34 34 19 9 42 31 52 49 10 18 40 50 67 71 27 21 74 71 104 110 30 40 60
76 67 80 6 5 20 22 31 38 10 17 39 57 64 89 25 32 63 79 85 102 21 24 46 44
56 44 9 0 25 9 35 20 10 11 22 20 27 20 5 0 38 14 74 31 36 18 77 44 92 59 19
18 42 29 75 33 27 4 62 16 78 28 16 11 46 23 66 26 22 3 51 18 69 35 17 16 63
40 103 53 39 14 81 30 94 36 12 6 46 34 75 63 45 43 59 51 92 52 28 0 52 9 82
32 24 17 48 31 55 32 8 0 6 -11 -7 -33z m-4560 -41 c0 -7 -7 -19 -14 -26 -8
-6 -22 -31 -32 -56 -9 -24 -25 -46 -36 -50 -10 -3 -38 -25 -61 -49 -23 -24
-49 -52 -57 -62 -8 -9 -27 -36 -42 -58 -15 -22 -28 -46 -28 -53 0 -7 -51 -63
-114 -126 -63 -63 -116 -125 -120 -140 -4 -15 -15 -28 -29 -32 -12 -3 -38 -26
-57 -52 -19 -26 -45 -62 -56 -81 -12 -19 -35 -41 -51 -50 -17 -9 -51 -40 -76
-69 -26 -29 -47 -59 -47 -67 0 -8 -16 -27 -36 -42 -19 -15 -45 -37 -57 -49
-12 -11 -28 -30 -34 -42 -7 -12 -13 -28 -13 -36 0 -8 -14 -23 -31 -33 -17 -10
-40 -33 -51 -51 -11 -18 -31 -40 -43 -48 -13 -9 -26 -28 -30 -43 -3 -15 -24
-45 -45 -66 -22 -22 -40 -43 -40 -49 0 -5 -13 -36 -29 -70 -16 -34 -42 -74
-59 -89 -25 -24 -40 -29 -98 -32 -38 -3 -76 -4 -84 -4 -8 0 -54 2 -102 5 -75
5 -88 8 -88 23 0 9 17 35 38 57 20 22 50 57 66 77 16 20 39 40 50 43 12 3 36
17 54 31 17 13 32 29 32 36 1 7 19 26 41 42 23 17 55 40 72 52 18 12 49 35 69
50 21 15 40 35 44 45 3 10 12 18 20 18 8 0 29 15 46 33 16 17 36 47 44 64 9
21 29 40 57 54 23 12 69 49 102 84 33 34 86 77 117 94 31 18 70 46 87 63 16
17 35 43 41 59 10 23 10 32 -1 45 -7 9 -22 13 -33 11 -12 -3 -37 -11 -56 -19
-19 -7 -57 -30 -84 -51 -27 -20 -52 -35 -55 -31 -3 3 11 20 31 37 20 18 43 46
52 63 8 18 46 63 83 102 37 38 84 89 103 112 19 24 54 64 78 89 23 25 42 52
42 59 0 8 30 45 67 83 37 38 80 76 96 84 17 8 34 15 40 15 5 0 23 6 40 14 18
7 70 25 117 40 47 15 96 33 110 41 14 8 31 14 38 15 6 0 12 -6 12 -14z m-1457
-60 c23 -13 53 -27 67 -31 14 -4 33 -15 43 -23 10 -9 32 -21 50 -27 17 -5 32
-15 34 -21 2 -6 -8 -26 -21 -45 -14 -19 -33 -50 -41 -71 -11 -23 -37 -51 -76
-78 -42 -29 -67 -56 -84 -90 -16 -32 -41 -60 -72 -81 -27 -18 -64 -46 -83 -62
-19 -17 -88 -80 -154 -141 -65 -61 -127 -116 -137 -121 -11 -6 -33 -28 -50
-48 -17 -20 -35 -37 -40 -37 -6 0 -29 -15 -52 -32 -23 -18 -45 -38 -50 -45 -4
-6 -24 -17 -45 -24 -20 -6 -61 -31 -91 -55 -29 -24 -58 -44 -63 -44 -5 0 -24
-11 -42 -25 -18 -14 -48 -30 -67 -37 -19 -6 -54 -23 -79 -38 -25 -14 -51 -38
-58 -53 -7 -15 -40 -45 -73 -68 -33 -22 -64 -52 -70 -65 -5 -14 -9 -34 -9 -44
0 -10 12 -32 26 -49 16 -19 24 -38 20 -47 -6 -15 -22 -16 -144 -10 -75 4 -159
13 -187 19 -27 7 -93 12 -145 12 -52 0 -97 3 -100 6 -3 3 24 31 60 63 36 32
84 81 108 108 23 27 42 53 42 58 0 4 15 17 33 27 17 11 47 33 65 49 19 16 60
55 93 86 32 31 69 60 81 63 13 4 50 33 83 65 33 31 101 90 150 130 50 39 96
82 102 95 7 13 35 37 63 54 27 17 50 35 50 41 0 5 16 28 36 50 20 22 42 40 49
40 6 0 28 18 49 40 20 22 40 40 45 40 4 0 28 20 54 45 25 25 69 62 99 81 29
20 73 55 98 78 25 23 65 55 88 71 24 16 60 48 80 70 21 23 48 48 62 55 14 7
34 21 45 30 11 10 36 27 55 38 19 11 41 21 48 21 7 1 32 -10 55 -23z m833
-117 c3 -6 -5 -23 -19 -37 -14 -15 -33 -41 -43 -58 -11 -17 -41 -57 -69 -88
-27 -32 -64 -72 -80 -89 -17 -18 -44 -44 -60 -58 -17 -14 -54 -60 -82 -101
-29 -41 -53 -79 -53 -83 0 -5 -17 -25 -37 -46 -21 -21 -57 -58 -80 -83 -24
-24 -43 -53 -43 -65 0 -11 -8 -25 -17 -30 -10 -5 -88 -78 -173 -162 -85 -83
-177 -168 -205 -189 -27 -20 -65 -42 -83 -48 -18 -6 -45 -24 -60 -39 -15 -15
-35 -40 -45 -55 -9 -15 -32 -34 -49 -42 -18 -9 -52 -34 -75 -57 -23 -22 -45
-49 -48 -59 -5 -14 -20 -20 -71 -26 -36 -3 -90 -4 -120 0 -35 4 -61 2 -73 -6
-15 -9 -28 -9 -59 0 -23 7 -58 10 -79 7 -22 -4 -63 0 -98 9 -40 11 -76 14
-110 9 -45 -6 -49 -5 -37 10 7 9 26 19 42 22 16 3 34 13 41 21 7 9 29 24 48
34 20 10 65 41 101 69 36 29 88 72 115 96 28 24 78 71 113 104 35 34 72 66 83
71 10 6 19 17 19 25 0 8 25 33 55 55 31 23 81 67 113 98 31 31 73 68 93 82 19
14 68 59 107 101 40 42 72 80 72 85 0 5 27 29 61 54 33 24 67 55 74 70 8 14
26 37 42 53 15 15 72 69 126 120 53 51 97 97 97 102 1 6 18 28 38 51 35 38 43
42 131 58 67 13 130 17 212 14 65 -1 121 0 125 5 4 4 18 7 30 7 13 0 26 -5 30
-11z m4118 -68 c3 -5 0 -21 -8 -36 -8 -15 -24 -34 -37 -43 -12 -8 -34 -16 -48
-17 -14 -2 -39 -6 -55 -10 -21 -6 -27 -5 -22 4 4 6 14 11 21 11 8 0 25 14 37
31 13 17 39 39 58 49 19 10 38 18 42 19 4 1 9 -3 12 -8z m-240 -333 c-4 -13
-24 -46 -45 -75 -22 -29 -39 -59 -39 -68 0 -9 -7 -18 -15 -21 -9 -4 -32 -31
-52 -61 -20 -31 -85 -105 -145 -165 -59 -61 -108 -116 -108 -122 0 -7 -41 -49
-90 -94 -50 -45 -96 -82 -102 -82 -6 0 -34 -19 -62 -43 -28 -23 -68 -54 -88
-67 -21 -14 -38 -28 -38 -31 0 -3 -19 -14 -42 -24 -24 -9 -59 -26 -79 -36 -20
-11 -46 -19 -57 -19 -11 0 -40 -9 -64 -20 -27 -11 -80 -22 -129 -26 -80 -6
-85 -5 -105 17 -12 13 -27 50 -34 81 -9 48 -9 62 4 87 9 16 16 39 16 49 0 11
27 45 61 76 34 31 74 60 90 63 16 3 39 18 50 34 16 22 28 29 54 29 19 0 37 5
41 11 3 6 22 17 40 25 19 8 34 19 34 24 0 5 19 22 42 37 23 16 67 42 98 58 30
17 62 36 70 42 8 7 29 24 46 38 18 14 41 25 51 25 11 0 37 12 58 28 21 15 51
39 67 54 16 15 39 35 51 43 12 8 29 15 39 15 10 0 59 20 110 44 51 25 122 56
158 69 36 14 78 25 93 26 25 1 27 -2 21 -21z m-6894 -1098 c14 -5 36 -10 50
-12 14 -2 23 -7 20 -13 -3 -6 -36 -9 -74 -8 -48 1 -74 7 -85 18 -14 14 -14 17
-1 25 8 5 26 7 40 4 14 -3 36 -10 50 -14z m263 -18 c21 -8 36 -20 34 -26 -2
-6 -31 -12 -68 -13 -35 -1 -76 3 -91 9 -16 6 -28 14 -28 18 0 4 10 15 23 23
15 11 33 14 57 10 19 -3 52 -12 73 -21z m302 -3 c32 -4 78 -5 101 -2 27 3 60
-1 93 -12 28 -9 55 -14 60 -10 6 3 65 6 133 7 68 0 130 4 140 9 10 6 32 3 59
-6 23 -9 63 -15 88 -15 25 1 58 -1 72 -3 14 -2 41 -9 59 -17 25 -10 39 -11 64
-2 18 7 51 12 75 12 23 0 54 6 69 14 20 10 39 11 72 5 25 -5 79 -15 120 -24
41 -9 111 -17 155 -18 44 -2 93 1 108 6 19 6 53 6 100 -2 40 -6 140 -13 222
-15 107 -3 163 -9 195 -21 25 -9 68 -16 95 -15 28 0 79 1 115 1 36 -1 106 -3
155 -7 50 -3 122 -5 162 -4 49 1 82 -4 103 -15 25 -13 50 -15 113 -11 45 3 91
6 102 6 11 0 70 -2 131 -5 62 -3 142 -14 178 -24 40 -11 69 -15 72 -9 4 5 18
7 33 3 14 -4 44 -8 66 -9 22 -1 52 4 68 11 21 11 32 11 49 2 12 -7 74 -12 147
-13 76 0 134 4 146 10 14 8 39 8 80 2 33 -5 143 -11 245 -14 102 -2 266 -6
365 -8 99 -1 203 -8 230 -14 36 -8 81 -8 160 0 90 9 130 8 230 -6 116 -16 122
-16 190 3 44 12 75 16 86 11 9 -6 30 -5 52 2 29 9 43 8 79 -8 35 -15 73 -18
213 -20 94 -1 193 -6 220 -12 28 -6 97 -11 155 -11 58 0 148 -1 200 0 77 0 97
-3 107 -17 11 -15 18 -15 55 -5 31 8 60 8 103 1 33 -6 67 -11 75 -10 8 0 69 0
135 0 66 0 150 -2 186 -4 37 -2 72 -7 79 -11 7 -4 211 -10 454 -13 242 -3 475
-6 516 -6 41 0 89 5 107 12 27 12 35 11 55 -2 18 -11 56 -15 168 -16 80 0 163
-1 185 -2 22 -1 51 0 65 1 14 1 52 1 85 1 34 -1 66 -4 73 -8 6 -4 13 -23 14
-41 2 -26 -2 -35 -18 -41 -14 -6 -32 -3 -50 7 -19 9 -59 15 -114 16 -47 0
-115 -3 -153 -8 -37 -4 -70 -11 -72 -15 -3 -5 -2 -15 1 -23 3 -9 18 -20 33
-25 16 -6 46 -6 70 -2 24 4 51 6 61 3 10 -3 32 5 48 17 l30 23 34 -21 c18 -11
56 -23 83 -27 44 -5 55 -3 90 21 24 16 44 23 51 18 6 -5 24 -18 39 -28 22 -16
42 -19 118 -17 51 1 120 2 155 2 34 0 87 0 117 -1 30 0 67 0 83 1 15 0 50 -2
77 -4 28 -2 55 -1 60 4 6 4 40 3 75 -3 36 -6 81 -10 100 -9 19 1 91 2 160 4
69 1 131 6 138 11 7 4 19 2 28 -4 8 -7 39 -12 72 -11 31 1 106 3 166 6 60 2
129 7 153 11 28 4 76 0 133 -12 85 -17 90 -17 129 0 21 10 43 16 49 12 5 -3
65 -9 133 -13 68 -4 162 -7 209 -6 47 0 99 2 115 3 17 2 114 0 216 -3 145 -5
198 -3 235 7 27 8 80 13 119 12 39 -2 90 -10 115 -19 25 -9 56 -17 70 -17 14
0 44 7 68 15 38 14 53 14 120 1 42 -7 94 -11 115 -9 26 4 49 -1 72 -13 31 -16
40 -17 98 -5 42 8 89 10 133 6 38 -5 83 -14 101 -21 18 -8 60 -14 93 -14 33 0
76 -6 95 -14 20 -9 49 -12 69 -9 25 4 44 0 70 -17 26 -16 44 -20 66 -15 24 5
37 1 61 -19 17 -14 35 -26 40 -26 5 0 22 -9 37 -20 15 -11 40 -21 55 -22 15
-1 35 -10 44 -20 9 -10 21 -18 27 -18 6 0 30 -8 53 -18 24 -9 43 -20 43 -24 0
-5 -8 -8 -17 -8 -10 0 -33 -9 -51 -20 -18 -11 -45 -20 -60 -20 -15 0 -61 -9
-102 -21 -41 -11 -84 -18 -95 -15 -12 3 -71 -1 -131 -9 -60 -8 -163 -15 -229
-15 -78 -1 -128 -5 -143 -13 -17 -10 -39 -11 -85 -4 -34 5 -147 11 -252 14
-104 2 -266 6 -360 7 -93 1 -185 8 -203 14 -18 6 -83 10 -146 10 -77 0 -120 4
-137 13 -18 10 -93 14 -319 15 -162 0 -441 4 -620 8 -178 4 -333 12 -343 18
-10 5 -48 9 -85 8 -37 -1 -159 1 -272 4 -113 3 -227 10 -255 15 -27 6 -140 14
-250 19 -110 6 -213 15 -230 22 -16 6 -55 14 -85 17 -30 3 -89 6 -130 8 -41 1
-118 5 -170 8 -52 3 -142 15 -199 27 -58 12 -115 19 -127 16 -13 -4 -53 -1
-91 6 -37 6 -106 13 -153 14 -47 1 -121 9 -165 17 -45 9 -102 15 -127 15 -25
0 -55 5 -66 11 -12 6 -64 11 -117 11 -53 0 -124 6 -158 14 -34 8 -85 20 -113
26 -38 8 -57 8 -77 -1 -21 -10 -32 -9 -60 5 -19 8 -59 22 -88 30 -35 8 -55 19
-57 30 -3 13 4 16 35 16 21 0 55 2 76 6 25 4 44 2 60 -9 12 -8 51 -18 85 -22
49 -5 68 -4 86 9 21 13 37 14 113 5 61 -7 101 -8 126 -1 20 6 54 8 75 5 24 -3
42 -1 46 6 5 8 13 8 29 -1 12 -6 73 -13 135 -15 101 -4 117 -2 146 17 21 12
41 18 52 14 11 -4 25 -12 32 -17 7 -6 49 -11 93 -12 74 -2 83 0 105 22 13 13
24 28 24 33 0 4 -6 10 -12 13 -7 2 -24 0 -38 -5 -14 -4 -59 -6 -100 -3 -41 3
-103 8 -138 11 -49 5 -68 2 -89 -11 -19 -13 -31 -15 -47 -7 -12 5 -34 8 -49 5
-15 -3 -33 0 -40 6 -9 7 -24 8 -43 2 -16 -4 -44 -6 -62 -3 -18 2 -38 -1 -45
-6 -7 -6 -31 -14 -53 -18 -31 -4 -51 -1 -82 15 -36 19 -47 20 -92 10 -28 -6
-58 -8 -67 -5 -8 4 -30 1 -48 -5 -28 -11 -37 -9 -66 9 -32 19 -41 20 -139 11
-70 -6 -152 -5 -245 2 -77 6 -178 10 -225 9 -47 0 -227 2 -400 4 -173 3 -351
11 -395 17 -44 6 -127 13 -185 14 -58 2 -132 6 -165 9 -33 3 -97 7 -142 9 -45
3 -87 8 -94 12 -7 5 -85 9 -173 10 -89 2 -215 8 -281 14 -66 6 -151 11 -190
11 -38 0 -113 -2 -165 -4 -60 -2 -110 1 -135 9 -27 8 -62 10 -109 5 -60 -7
-73 -5 -95 11 -23 17 -33 18 -91 8 -37 -6 -80 -7 -100 -2 -19 4 -91 9 -160 10
-69 1 -194 4 -277 6 -84 3 -162 8 -173 12 -14 4 -28 1 -41 -11 -17 -15 -24
-16 -53 -6 -18 7 -41 12 -51 12 -10 0 -33 5 -51 12 -26 9 -41 9 -73 -2 -31
-10 -50 -11 -78 -2 -21 6 -67 15 -103 21 -49 8 -80 7 -127 -3 -34 -7 -64 -12
-66 -10 -2 2 -28 6 -58 9 -30 3 -88 10 -129 15 -41 6 -100 8 -131 4 -45 -4
-67 -1 -108 16 l-51 22 -51 -22 c-37 -15 -59 -19 -78 -14 -14 5 -73 10 -131
11 -58 2 -172 5 -255 7 -82 3 -181 9 -220 15 -38 5 -92 17 -119 25 -47 15 -50
15 -83 -5 -27 -17 -39 -19 -56 -11 -12 6 -47 13 -77 16 -30 4 -86 8 -125 11
-38 2 -86 5 -105 5 -19 1 -51 1 -70 0 -19 0 -60 1 -90 3 -30 3 -86 10 -125 17
-38 7 -100 12 -138 11 -37 -1 -119 3 -183 9 -103 10 -118 10 -141 -5 -24 -16
-26 -16 -52 8 -24 23 -30 24 -77 17 -35 -6 -68 -4 -100 4 -26 6 -49 17 -51 23
-2 6 13 18 34 27 24 10 51 13 73 10 19 -3 62 -10 95 -15z m6635 -149 c0 -5 -2
-10 -4 -10 -3 0 -8 5 -11 10 -3 6 -1 10 4 10 6 0 11 -4 11 -10z m-7255 -11 c4
-6 5 -13 2 -16 -3 -3 -21 -2 -39 2 -29 7 -30 9 -13 16 11 4 25 8 32 8 6 1 15
-4 18 -10z m245 -9 c0 -4 -7 -13 -15 -20 -8 -6 -22 -10 -31 -8 -10 2 -19 9
-22 16 -2 6 7 16 20 21 12 4 29 6 36 4 6 -3 12 -9 12 -13z m678 -130 c18 -11
47 -20 65 -21 18 0 57 -1 87 -1 30 0 71 0 90 0 19 0 103 1 185 1 83 1 157 1
165 0 8 0 47 4 87 9 39 6 77 13 83 17 6 4 21 0 34 -9 13 -8 44 -15 68 -16 23
0 75 -3 113 -5 39 -3 135 -5 215 -5 80 1 161 6 181 12 28 8 42 7 65 -5 24 -12
73 -14 264 -12 130 1 303 -1 385 -6 83 -5 167 -13 187 -19 30 -9 44 -8 68 5
20 10 36 13 48 7 9 -5 42 -12 72 -15 30 -4 98 -11 150 -17 69 -8 114 -8 163 1
52 8 71 8 82 -1 12 -10 24 -10 58 -1 34 10 49 9 77 -2 26 -11 72 -14 175 -13
77 1 151 -2 165 -7 14 -5 63 -11 110 -13 47 -3 123 -6 170 -8 47 -1 94 -8 106
-14 14 -7 61 -9 137 -7 76 3 118 1 122 -6 4 -6 38 -10 79 -10 39 0 96 -1 126
-3 30 -1 105 -4 165 -6 61 -1 126 -6 145 -11 19 -5 109 -11 200 -14 91 -3 199
-10 240 -15 41 -6 98 -10 125 -9 28 0 123 1 212 0 92 0 170 -4 181 -10 11 -6
48 -10 83 -11 35 0 73 1 84 1 11 1 47 -4 80 -10 39 -7 63 -7 69 -1 6 6 16 10
24 10 8 0 26 -9 41 -19 24 -17 44 -20 152 -19 75 1 139 -4 162 -11 21 -7 44
-10 52 -7 8 3 96 1 197 -4 101 -5 199 -15 219 -21 27 -8 42 -8 58 1 17 9 26 9
37 -1 9 -7 48 -14 87 -15 40 -1 110 -12 156 -23 46 -12 97 -21 112 -21 16 0
29 -4 29 -9 0 -4 -38 -11 -85 -14 -52 -4 -97 -2 -116 5 -23 8 -49 8 -100 -2
-39 -6 -87 -9 -111 -5 -23 4 -114 10 -202 12 -89 3 -210 6 -271 6 -60 1 -115
-2 -121 -6 -7 -4 -31 0 -55 9 -24 10 -69 17 -99 17 -30 0 -134 -3 -230 -6
-110 -4 -229 -1 -320 7 -80 7 -171 14 -202 14 -32 1 -77 2 -100 1 -24 0 -88
-1 -143 -2 -55 -2 -113 -7 -128 -11 -19 -6 -33 -4 -45 6 -9 7 -33 21 -52 30
-28 12 -50 14 -105 8 -39 -5 -87 -13 -108 -18 -21 -6 -41 -13 -44 -16 -3 -2
-28 4 -56 15 -44 18 -57 19 -92 9 -33 -9 -57 -8 -118 4 -42 9 -94 16 -115 16
-22 0 -45 -6 -51 -14 -6 -7 -39 -23 -72 -36 -58 -21 -62 -21 -102 -5 -28 11
-68 17 -118 16 -42 -1 -87 3 -100 8 -13 4 -34 5 -46 0 -15 -6 -28 -2 -44 12
-12 10 -26 19 -31 19 -5 0 -19 -6 -31 -14 -14 -9 -53 -15 -107 -16 -47 -1
-147 0 -223 4 -75 3 -147 1 -160 -3 -15 -6 -32 -4 -51 6 -25 13 -36 13 -63 4
-18 -7 -54 -14 -79 -17 -24 -2 -54 1 -65 6 -11 6 -61 16 -110 21 -80 9 -93 8
-110 -7 -13 -12 -26 -14 -46 -9 -15 5 -76 9 -135 11 -58 1 -123 7 -143 14 -27
9 -44 9 -68 0 -18 -6 -66 -14 -108 -17 -54 -4 -94 -1 -143 11 -53 14 -74 15
-101 6 -25 -8 -40 -8 -55 0 -15 8 -26 8 -42 -1 -14 -7 -48 -10 -95 -6 -40 3
-114 2 -165 -3 -76 -7 -96 -6 -109 5 -8 8 -40 20 -70 27 -30 6 -76 10 -104 8
-27 -1 -70 -3 -95 -2 -25 0 -102 5 -171 10 -70 5 -132 13 -139 17 -6 4 -53 9
-104 10 -50 1 -154 6 -231 10 -81 4 -156 13 -179 21 -28 11 -58 13 -107 8 -59
-6 -72 -4 -104 16 -19 12 -42 20 -50 17 -7 -3 -44 -1 -80 5 -44 6 -71 6 -77 0
-5 -5 -39 -7 -76 -5 -45 4 -74 11 -87 23 -11 10 -47 24 -80 30 -33 7 -72 15
-88 17 -15 3 -40 0 -56 -7 -20 -8 -34 -8 -47 -1 -11 5 -45 21 -76 36 -32 14
-58 29 -58 34 0 5 12 12 28 17 15 4 162 9 327 10 238 1 308 5 340 17 22 8 42
15 45 16 3 0 20 -8 38 -19z m9480 -73 c2 -12 -3 -17 -17 -17 -15 0 -21 6 -21
21 0 14 5 19 17 17 10 -2 19 -11 21 -21z m-445 0 c-2 -4 -6 -8 -10 -9 -3 -2
-8 3 -11 11 -3 8 1 12 9 9 8 -3 13 -8 12 -11z m-2503 -87 c0 -11 -6 -20 -13
-20 -7 0 -18 5 -25 12 -7 7 -12 16 -12 20 0 4 11 8 25 8 18 0 25 -5 25 -20z
m-190 -11 c0 -5 -7 -9 -15 -9 -8 0 -15 4 -15 8 0 5 3 12 6 15 4 4 11 4 15 1 5
-3 9 -9 9 -15z m-4612 -461 c73 -10 87 -9 119 6 34 16 36 16 57 -3 14 -14 46
-24 91 -30 52 -8 83 -7 120 3 35 9 61 10 88 3 26 -7 50 -6 77 2 23 7 47 8 62
3 12 -5 50 -8 83 -7 33 1 75 -4 94 -12 18 -7 52 -13 75 -13 22 0 61 7 85 16
39 13 47 13 87 -2 36 -14 53 -15 103 -6 39 7 72 8 93 1 18 -5 63 -9 100 -9 37
0 70 -4 73 -10 3 -5 22 -10 42 -10 20 0 53 5 74 12 35 10 42 9 62 -9 12 -11
33 -23 46 -26 13 -3 39 0 57 8 19 8 77 14 146 15 69 1 129 -3 155 -11 34 -10
49 -10 81 0 32 11 48 11 88 1 27 -7 117 -15 199 -18 83 -3 231 -6 330 -7 108
0 194 -6 215 -13 19 -6 58 -12 85 -13 28 -1 81 3 119 9 45 7 76 8 87 1 11 -5
57 -7 112 -3 83 6 97 4 134 -15 32 -16 60 -21 115 -21 40 0 88 4 107 10 24 7
48 5 90 -6 31 -9 66 -18 78 -21 13 -3 40 2 62 10 32 13 41 14 57 3 11 -8 55
-15 104 -17 47 -2 95 0 107 4 13 5 41 2 69 -8 33 -11 63 -14 99 -10 39 5 60 3
83 -9 23 -12 69 -17 179 -20 81 -2 200 -7 263 -12 88 -5 121 -12 141 -26 20
-15 31 -17 51 -9 15 6 82 7 159 4 74 -3 199 -7 279 -8 80 -2 172 -9 205 -16
33 -7 66 -16 73 -22 6 -5 12 -18 12 -28 0 -11 -4 -19 -10 -19 -5 0 -20 5 -33
11 -20 9 -44 7 -113 -8 -62 -13 -119 -19 -186 -17 -54 2 -107 8 -118 14 -16 9
-41 7 -106 -6 -61 -12 -92 -14 -107 -7 -13 6 -76 8 -152 6 -72 -3 -184 -5
-250 -4 -66 0 -145 0 -175 -1 -30 -1 -73 -1 -95 1 -22 1 -69 2 -105 2 -36 0
-117 0 -181 0 -93 0 -118 -3 -128 -15 -8 -9 -24 -16 -36 -16 -12 0 -40 7 -61
16 -30 13 -77 17 -209 19 -101 1 -188 7 -215 15 -27 7 -68 10 -103 6 -43 -4
-66 -2 -89 10 -24 13 -36 14 -56 5 -14 -7 -47 -9 -81 -6 -31 3 -76 2 -100 -2
-25 -5 -90 -5 -145 0 -56 5 -105 13 -110 18 -6 5 -22 9 -37 9 -14 0 -40 -5
-57 -11 -24 -8 -37 -7 -64 7 -27 14 -57 17 -163 15 -71 -1 -146 -1 -165 -1
-19 1 -69 3 -110 5 -41 2 -121 6 -177 8 -58 2 -109 9 -117 16 -9 7 -49 11
-112 9 -55 -1 -124 2 -154 7 -30 4 -77 10 -105 12 -27 2 -66 3 -85 2 -19 0
-64 -1 -100 -1 -36 0 -92 4 -125 10 -33 6 -98 16 -145 23 -47 7 -143 14 -215
16 -71 2 -146 7 -165 13 -19 5 -57 12 -85 15 -27 4 -110 8 -184 11 -73 2 -138
7 -144 11 -6 4 -54 8 -106 10 -53 2 -121 10 -151 19 -38 11 -91 16 -171 15
-86 -1 -124 3 -145 14 -19 10 -58 15 -112 15 -53 0 -93 5 -111 15 -16 8 -57
18 -92 22 -47 6 -64 12 -64 23 0 13 20 14 135 12 74 -2 158 -3 185 -3 28 0 78
2 112 4 35 2 66 7 70 11 5 4 21 5 38 2 16 -4 67 -11 113 -18z m1633 -585 c50
-14 66 -15 95 -4 19 7 44 9 57 5 12 -4 76 -8 142 -10 66 -1 199 -5 295 -9 96
-4 224 -9 284 -12 71 -3 112 -1 119 6 6 6 25 11 42 11 16 0 38 -7 49 -15 10
-8 39 -17 63 -21 29 -4 53 -2 68 6 14 8 35 10 52 6 15 -4 152 -11 303 -16 151
-5 343 -15 425 -22 83 -6 205 -13 272 -13 67 0 125 -4 129 -8 4 -4 98 -7 208
-7 111 -1 221 -6 246 -11 25 -6 77 -12 117 -14 39 -1 94 -9 122 -16 35 -9 57
-10 73 -2 13 5 38 7 58 2 19 -4 77 -13 127 -19 51 -6 130 -12 175 -11 46 0
153 -1 238 -2 85 -1 162 -6 170 -12 8 -5 53 -11 100 -12 47 -2 96 -4 110 -5
14 0 32 2 41 6 10 4 23 0 35 -11 14 -15 35 -18 113 -19 53 0 110 -2 126 -3 17
-1 36 -5 44 -10 10 -7 11 -13 2 -30 -7 -12 -21 -21 -34 -21 -13 0 -28 5 -34
11 -9 9 -20 9 -43 -1 -21 -9 -53 -11 -103 -6 -39 4 -103 9 -142 12 -38 3 -81
1 -95 -4 -17 -7 -33 -6 -50 3 -20 9 -57 9 -170 0 -123 -10 -147 -10 -159 2 -9
9 -22 12 -35 8 -12 -4 -79 -9 -149 -11 -71 -2 -153 -8 -184 -14 -30 -5 -65 -7
-77 -4 -12 3 -40 1 -63 -4 -30 -7 -61 -6 -108 4 -47 10 -83 11 -128 5 -34 -5
-66 -11 -72 -12 -5 -2 -25 3 -43 10 -28 12 -44 12 -95 1 -34 -7 -71 -12 -82
-12 -11 1 -46 4 -78 8 -40 4 -66 3 -82 -6 -20 -11 -27 -11 -39 0 -11 8 -76 15
-198 20 -106 4 -199 3 -223 -2 -22 -5 -58 -7 -80 -4 -22 3 -54 0 -71 -6 -23
-8 -45 -7 -93 5 -46 12 -69 13 -83 6 -12 -6 -30 -7 -46 -2 -15 4 -49 7 -77 6
-27 -2 -70 -4 -95 -4 -25 -1 -70 1 -100 3 -30 2 -65 0 -78 -6 -16 -7 -34 -6
-58 3 -32 12 -38 11 -57 -8 -15 -13 -27 -17 -36 -11 -8 4 -44 11 -80 15 -36 3
-89 7 -118 7 -29 1 -59 -4 -67 -11 -13 -11 -20 -10 -42 4 -22 14 -32 15 -75 4
-41 -11 -56 -10 -87 1 -20 7 -62 12 -92 10 -30 -1 -68 -2 -85 -1 -16 1 -59 3
-95 4 -36 1 -90 8 -120 15 -30 6 -75 12 -100 11 -25 0 -70 4 -100 9 -30 5 -63
12 -73 17 -10 4 -27 1 -42 -9 -20 -13 -33 -15 -58 -7 -18 5 -57 17 -87 25 -30
8 -95 17 -143 20 -64 4 -97 11 -121 26 -18 11 -44 20 -57 20 -13 0 -57 7 -98
15 -40 9 -87 23 -103 31 -16 8 -28 20 -25 27 2 6 28 16 58 22 30 7 61 15 68
19 7 5 58 10 114 12 56 2 109 5 117 5 8 1 65 0 125 -2 85 -2 117 1 140 13 17
9 33 16 38 17 4 1 34 -7 68 -16z"/>
<path d="M12950 5941 c-25 -9 -64 -29 -88 -44 -23 -15 -52 -42 -62 -60 -12
-20 -20 -50 -20 -79 0 -37 4 -50 19 -58 11 -5 33 -10 49 -10 17 0 37 9 48 21
10 11 26 42 34 67 12 37 25 53 67 82 37 24 53 42 53 57 0 12 -9 27 -19 33 -11
5 -23 10 -28 9 -4 0 -28 -8 -53 -18z"/>
<path d="M15655 5488 c-16 -5 -68 -24 -115 -41 -47 -17 -96 -39 -109 -49 -13
-10 -29 -18 -35 -18 -7 0 -27 -11 -46 -25 -18 -14 -49 -28 -67 -31 -18 -3 -40
-16 -48 -27 -8 -12 -15 -32 -15 -46 0 -15 -21 -48 -57 -89 -32 -35 -73 -81
-90 -101 -18 -20 -33 -39 -33 -43 0 -4 -17 -27 -37 -51 -21 -24 -47 -59 -58
-77 -11 -19 -25 -43 -32 -54 -6 -12 -23 -47 -38 -78 -15 -31 -33 -62 -41 -69
-8 -6 -14 -17 -14 -23 0 -6 -18 -37 -40 -69 -22 -31 -40 -69 -40 -83 0 -14 -6
-37 -14 -52 -8 -15 -26 -38 -40 -51 -14 -13 -28 -36 -31 -52 -4 -16 -15 -35
-25 -42 -11 -7 -28 -33 -38 -58 -11 -24 -27 -51 -36 -58 -10 -8 -24 -28 -33
-45 -8 -17 -36 -66 -61 -108 -24 -43 -48 -78 -52 -78 -5 0 -13 -14 -19 -31 -6
-17 -23 -47 -39 -67 -16 -20 -32 -46 -36 -57 -4 -11 -32 -40 -63 -65 -31 -25
-66 -50 -79 -55 -12 -6 -46 -30 -75 -55 -29 -25 -69 -61 -89 -82 -21 -20 -50
-43 -66 -51 -16 -9 -51 -36 -77 -61 -27 -25 -57 -46 -68 -46 -10 0 -26 -12
-35 -26 -10 -14 -35 -34 -56 -45 -21 -11 -41 -26 -44 -34 -3 -7 -18 -18 -34
-25 -16 -6 -46 -33 -68 -59 -22 -26 -63 -58 -95 -74 -37 -19 -64 -42 -82 -69
-25 -38 -26 -44 -15 -82 6 -23 15 -48 20 -56 6 -11 21 -14 56 -12 26 2 56 8
65 13 10 5 48 13 85 18 40 6 79 18 95 31 16 11 39 20 53 20 14 0 28 4 31 10 3
5 53 32 110 60 58 27 105 55 105 60 0 6 21 33 47 60 35 36 55 50 75 50 15 0
43 7 62 16 24 12 41 31 56 64 12 26 33 54 46 61 13 7 24 18 24 26 0 8 -13 13
-37 13 -26 0 -57 -13 -115 -50 -43 -27 -81 -50 -84 -50 -3 0 -20 -11 -37 -24
-18 -13 -50 -32 -72 -44 -22 -11 -77 -37 -123 -58 -58 -26 -86 -34 -93 -27 -7
7 14 25 70 59 44 27 81 54 81 61 0 6 42 37 93 67 50 31 110 72 132 93 22 20
79 70 127 110 48 40 129 115 180 166 51 50 98 103 105 117 6 14 23 57 37 95
14 39 39 90 56 115 16 25 30 50 30 56 0 5 11 25 25 44 14 19 25 45 25 59 0 15
12 35 29 50 16 14 57 77 90 139 34 62 61 117 61 122 0 6 25 47 57 92 31 45 71
114 88 153 18 38 49 86 69 105 20 19 36 40 36 45 0 6 19 30 43 53 28 27 52 42
69 42 14 0 31 -7 38 -15 7 -9 10 -27 7 -44 -5 -21 0 -34 16 -50 13 -11 37 -24
54 -27 27 -5 36 -2 60 24 15 17 63 62 107 101 43 38 117 114 163 168 47 54 96
121 110 149 l26 51 -34 56 c-19 31 -44 60 -57 66 -13 6 -28 11 -35 10 -7 0
-25 -5 -42 -11z"/>
<path d="M16450 5319 c-19 -10 -41 -19 -48 -19 -7 0 -31 -9 -53 -21 -22 -11
-68 -40 -101 -65 -33 -24 -64 -44 -69 -44 -5 0 -24 -12 -41 -27 -18 -16 -44
-39 -58 -53 -15 -14 -42 -37 -61 -52 -19 -14 -56 -47 -84 -72 -27 -25 -57 -48
-65 -51 -9 -3 -23 -18 -33 -34 -9 -16 -34 -43 -54 -60 -21 -18 -43 -35 -49
-40 -5 -4 -29 -21 -52 -36 -23 -15 -55 -48 -72 -74 -16 -25 -45 -64 -62 -87
-18 -22 -60 -69 -93 -104 -33 -35 -85 -90 -115 -121 -30 -32 -67 -74 -82 -93
-16 -18 -28 -39 -28 -45 0 -6 -11 -18 -25 -27 -14 -9 -44 -47 -66 -85 -23 -37
-71 -99 -107 -137 -37 -38 -81 -84 -98 -103 -16 -19 -46 -59 -66 -90 -20 -30
-44 -61 -52 -68 -9 -8 -16 -17 -16 -22 0 -4 -13 -22 -28 -38 -15 -17 -39 -49
-53 -71 -13 -21 -36 -44 -51 -51 -16 -7 -36 -29 -49 -55 -11 -24 -27 -48 -35
-52 -8 -5 -33 -35 -55 -67 -21 -32 -39 -62 -39 -68 0 -6 -16 -25 -35 -43 -20
-18 -38 -46 -41 -64 -4 -17 -16 -37 -26 -43 -11 -7 -28 -29 -39 -49 -12 -25
-19 -58 -19 -97 0 -50 3 -61 20 -66 10 -3 28 -1 40 5 11 6 20 15 20 20 0 4 14
11 30 15 17 4 56 20 88 36 31 16 64 29 72 29 8 0 35 16 59 35 24 19 53 35 65
35 12 0 35 8 51 19 17 10 50 37 74 59 24 23 55 44 70 47 14 3 33 11 42 18 9 7
23 26 32 44 10 19 45 50 87 78 39 25 85 51 103 58 18 8 38 21 46 30 7 10 20
17 28 17 8 0 48 32 87 70 57 55 79 70 102 70 18 0 55 16 93 41 34 22 71 55 81
72 11 18 34 38 51 46 18 8 56 38 85 67 38 37 58 51 72 47 14 -3 27 6 47 31 15
20 35 36 45 36 10 0 24 7 31 17 8 9 32 24 55 34 22 10 60 36 85 57 24 21 59
47 77 57 17 11 35 27 38 37 3 10 12 25 20 33 9 8 25 15 36 15 12 0 45 11 74
25 30 14 74 40 100 58 25 17 55 37 66 44 11 6 39 32 63 57 23 25 47 46 53 46
7 0 12 -5 12 -10 0 -6 -36 -46 -79 -90 -44 -43 -83 -89 -87 -102 -4 -13 -25
-43 -46 -68 -22 -24 -51 -52 -65 -62 -15 -9 -47 -34 -72 -55 -25 -21 -76 -68
-113 -105 -36 -37 -82 -74 -102 -82 -26 -11 -41 -27 -56 -59 -13 -27 -30 -47
-43 -51 -12 -3 -52 -34 -88 -68 -36 -35 -70 -70 -75 -79 -5 -9 -27 -25 -49
-35 -21 -11 -50 -35 -63 -54 -14 -21 -42 -44 -70 -56 -26 -12 -57 -32 -69 -45
-12 -13 -23 -35 -25 -48 -2 -19 -18 -33 -63 -57 -40 -22 -74 -50 -103 -88 -27
-35 -54 -58 -76 -66 -19 -6 -37 -18 -40 -26 -3 -9 -6 -29 -6 -45 0 -17 5 -39
10 -50 6 -10 15 -19 21 -19 6 0 38 14 72 31 34 17 86 39 115 50 28 10 62 25
74 33 12 9 30 16 38 16 9 0 34 13 56 30 21 16 45 30 52 30 7 0 30 11 50 25 20
14 41 25 46 25 5 0 30 17 55 38 25 21 55 41 66 45 11 3 45 14 75 25 39 13 61
28 75 50 14 21 28 31 46 32 14 0 54 14 88 31 34 17 65 38 68 45 3 8 44 43 92
78 47 35 99 78 115 95 17 17 35 31 42 31 7 0 15 13 19 30 4 16 4 34 0 40 -3 5
-12 10 -20 10 -7 0 -38 -14 -67 -32 -29 -17 -84 -51 -122 -76 -37 -25 -73 -56
-79 -69 -6 -14 -24 -27 -46 -33 -20 -5 -42 -10 -50 -10 -7 0 -31 -16 -52 -35
-22 -19 -46 -35 -54 -35 -9 0 -44 -13 -79 -29 -34 -17 -68 -37 -75 -45 -8 -9
-18 -16 -23 -16 -6 0 -30 -13 -55 -30 -24 -16 -51 -30 -59 -30 -7 0 -14 8 -14
18 0 9 29 43 65 75 36 32 72 74 80 93 8 19 18 34 24 34 5 0 30 17 54 38 24 20
51 44 60 52 9 8 32 32 51 53 20 21 36 41 36 46 0 4 19 16 41 27 23 10 66 42
96 71 30 29 58 53 63 53 5 0 31 20 57 43 26 24 75 68 108 99 33 30 97 91 142
136 46 45 87 82 93 82 5 0 16 13 24 29 9 16 27 31 40 35 15 4 42 29 65 59 21
28 46 66 54 83 10 20 33 39 60 52 24 11 60 39 80 61 20 23 37 45 37 50 0 5 15
14 33 20 17 6 44 24 60 40 15 16 27 32 27 36 0 3 14 18 31 33 17 14 52 36 78
47 33 16 59 39 91 84 25 34 66 75 91 91 25 17 50 30 55 30 6 0 15 19 21 42 7
28 8 49 2 60 -7 13 -17 17 -34 13 -14 -3 -35 -7 -47 -10 -13 -3 -54 -35 -93
-71 -38 -36 -99 -81 -135 -101 -36 -20 -76 -46 -90 -59 -14 -12 -52 -41 -85
-63 -33 -23 -64 -41 -70 -41 -5 0 -30 -20 -55 -44 -25 -24 -51 -51 -58 -60 -7
-9 -24 -16 -38 -16 -14 0 -44 -13 -67 -29 -23 -16 -67 -53 -98 -83 -31 -30
-73 -65 -95 -78 -21 -12 -54 -37 -72 -54 -18 -17 -46 -46 -64 -63 -18 -19 -46
-36 -67 -39 -19 -4 -62 -28 -94 -53 -33 -25 -74 -61 -92 -78 -18 -18 -43 -33
-54 -33 -12 0 -51 -25 -87 -56 -37 -31 -85 -64 -108 -74 -22 -9 -84 -46 -136
-80 -52 -35 -97 -67 -98 -72 -2 -5 -29 -25 -60 -46 -31 -20 -76 -48 -100 -62
-25 -14 -61 -42 -81 -62 -20 -20 -50 -43 -66 -51 -17 -8 -39 -24 -49 -36 -11
-12 -27 -21 -36 -21 -9 0 -31 -16 -50 -35 -19 -19 -42 -35 -51 -35 -10 0 -25
-10 -33 -22 -9 -12 -35 -32 -58 -44 -24 -13 -65 -34 -93 -47 -27 -14 -65 -37
-84 -51 -19 -14 -45 -26 -56 -26 -12 0 -39 -12 -60 -27 -20 -16 -58 -46 -84
-69 -25 -23 -58 -44 -72 -47 -14 -4 -38 -18 -52 -33 -14 -14 -31 -23 -37 -19
-5 3 -10 14 -10 24 0 10 18 39 40 64 22 25 40 51 40 59 0 7 20 36 44 63 24 28
46 59 50 70 4 11 31 40 61 64 30 24 55 48 55 53 0 5 9 21 20 35 11 14 20 36
20 49 0 14 8 25 22 30 11 3 36 23 55 43 18 20 42 55 52 78 11 22 27 44 38 47
10 3 27 25 38 48 19 42 22 43 72 46 45 3 55 7 74 34 12 16 38 37 58 45 20 9
53 31 74 49 21 19 48 34 61 34 14 0 47 11 73 26 26 14 59 35 73 48 14 12 38
28 54 35 16 6 52 31 80 55 28 24 66 47 83 51 18 3 56 23 84 43 28 20 72 56 98
80 25 24 76 58 113 77 37 19 75 47 85 61 10 15 34 42 53 61 19 19 46 40 60 46
14 7 50 40 80 74 30 34 64 74 76 90 12 15 31 47 42 70 12 22 34 51 49 63 17
13 33 40 41 68 8 26 16 58 19 72 3 14 12 33 21 42 11 13 13 29 7 63 -4 33 -17
58 -42 86 -29 32 -42 39 -72 38 -20 0 -52 -9 -71 -20z m-147 -281 c12 -6 35
-14 51 -17 16 -4 34 -14 40 -24 9 -14 6 -22 -17 -42 -15 -14 -27 -34 -27 -43
0 -10 -13 -29 -30 -44 -16 -14 -30 -35 -30 -46 0 -13 -19 -34 -50 -57 -28 -21
-57 -49 -65 -65 -8 -15 -27 -35 -42 -45 -15 -10 -51 -35 -80 -57 -28 -21 -54
-50 -57 -63 -4 -14 -23 -36 -43 -50 -21 -14 -49 -25 -62 -25 -16 0 -41 -17
-73 -50 -27 -28 -57 -50 -69 -50 -11 0 -41 -17 -67 -38 -26 -22 -63 -45 -82
-52 -19 -7 -44 -21 -55 -31 -11 -9 -50 -34 -87 -54 -38 -20 -70 -41 -74 -46
-3 -5 -14 -9 -24 -9 -11 0 -27 -11 -36 -25 -9 -14 -23 -25 -30 -25 -8 0 -14 6
-14 14 0 8 8 21 18 28 10 7 29 31 42 52 13 22 40 55 61 73 20 18 40 44 43 57
3 13 33 49 66 79 36 34 60 64 60 77 0 11 8 23 18 27 9 3 29 17 45 31 15 14 27
31 27 36 0 6 28 34 61 61 33 28 82 69 109 93 26 23 53 55 60 72 7 16 24 33 40
38 15 6 43 23 61 39 18 15 51 47 74 70 23 23 54 45 69 49 16 4 42 22 60 40 20
21 41 33 59 33 16 1 38 -4 50 -11z"/>
<path d="M19350 5282 c-14 -9 -31 -25 -38 -34 -7 -10 -19 -18 -26 -18 -7 0
-25 -13 -41 -30 -16 -16 -34 -30 -40 -30 -6 0 -35 -23 -63 -50 -29 -28 -52
-57 -52 -65 0 -8 -6 -15 -14 -15 -8 0 -31 -8 -52 -18 -22 -9 -81 -58 -132
-107 -51 -50 -115 -110 -142 -135 -28 -24 -58 -49 -67 -54 -9 -5 -28 -23 -43
-39 -14 -17 -33 -43 -42 -59 -10 -15 -25 -28 -34 -28 -9 0 -31 -13 -48 -29
-17 -16 -44 -43 -61 -59 -16 -16 -41 -43 -56 -58 -14 -16 -52 -54 -85 -85 -32
-31 -66 -64 -75 -75 -9 -10 -60 -59 -114 -109 -54 -49 -102 -102 -107 -117 -5
-15 -17 -30 -26 -32 -10 -3 -67 -54 -128 -113 -61 -60 -123 -125 -139 -146
-21 -28 -33 -36 -47 -31 -11 3 -40 -2 -64 -11 -24 -9 -44 -21 -44 -26 0 -4
-28 -27 -62 -49 -34 -22 -67 -40 -73 -40 -6 0 -44 -25 -84 -55 -40 -30 -78
-55 -85 -55 -7 0 -23 -11 -36 -25 -13 -14 -31 -25 -40 -25 -9 0 -27 -11 -40
-25 -13 -14 -31 -25 -39 -25 -9 0 -36 -14 -61 -30 -25 -16 -51 -30 -58 -30 -7
0 -32 -9 -54 -20 -23 -11 -48 -20 -55 -20 -7 0 -25 -13 -40 -30 -14 -16 -34
-30 -43 -30 -10 0 -28 -9 -41 -19 -14 -10 -47 -26 -75 -34 -28 -8 -70 -25 -93
-37 -36 -18 -48 -20 -73 -11 -17 6 -39 11 -50 11 -10 0 -38 -18 -61 -39 -33
-31 -55 -41 -101 -50 -33 -6 -61 -9 -64 -6 -2 2 5 24 16 47 11 24 47 72 81
107 34 35 61 68 61 74 0 5 20 30 45 55 25 25 48 55 51 66 3 12 23 33 45 49 22
15 44 38 50 50 6 13 24 31 40 41 16 9 32 28 35 42 4 17 28 39 69 65 35 22 79
58 99 79 20 22 36 44 36 49 0 5 19 19 43 30 23 12 63 42 90 67 26 25 47 49 47
53 0 4 20 23 46 41 25 19 51 46 57 60 7 14 30 34 51 45 22 11 57 38 78 60 21
22 38 43 38 47 0 3 15 16 34 28 21 13 39 34 46 55 8 23 20 37 41 44 17 6 40
22 51 36 11 14 27 25 37 25 9 0 37 20 61 46 25 25 64 55 88 66 23 12 42 27 42
34 0 6 12 20 28 29 15 10 38 27 50 39 13 11 40 37 60 57 21 19 49 43 63 52 15
8 29 25 31 35 3 11 3 24 -1 29 -3 5 -16 16 -29 25 -16 11 -36 14 -65 11 -23
-3 -62 -16 -87 -29 -25 -12 -54 -36 -65 -53 -11 -17 -33 -35 -49 -41 -17 -6
-46 -26 -65 -46 -20 -19 -47 -45 -61 -58 -14 -12 -38 -31 -54 -42 -16 -10 -45
-30 -66 -44 -20 -14 -56 -37 -79 -53 -22 -15 -41 -32 -41 -37 0 -6 -5 -10 -10
-10 -6 0 -36 -24 -67 -52 -32 -29 -71 -67 -88 -84 -16 -16 -37 -33 -45 -37 -8
-4 -49 -32 -90 -62 -41 -30 -93 -64 -115 -75 -22 -11 -62 -40 -88 -63 -32 -30
-47 -52 -47 -69 0 -20 -6 -27 -29 -31 -16 -3 -36 -13 -44 -22 -9 -8 -27 -15
-41 -15 -21 0 -26 -5 -26 -26 l0 -26 68 7 c43 5 71 13 80 23 6 9 12 22 12 29
0 7 9 13 19 13 11 0 32 16 47 35 14 19 32 35 39 35 7 0 18 7 25 15 8 10 17 12
22 7 6 -6 -2 -25 -19 -49 -15 -22 -35 -44 -43 -49 -9 -5 -30 -18 -48 -29 -18
-11 -35 -30 -38 -42 -4 -13 -10 -23 -15 -23 -4 0 -26 -17 -49 -37 -22 -20 -40
-43 -40 -50 0 -7 -11 -18 -24 -25 -14 -7 -38 -30 -55 -52 -17 -21 -31 -45 -31
-52 0 -7 -13 -20 -29 -28 -16 -9 -31 -22 -34 -31 -4 -8 -19 -15 -34 -15 -15 0
-38 -8 -50 -18 -12 -9 -23 -30 -25 -47 -2 -23 -9 -31 -27 -33 -13 -2 -31 -11
-40 -19 -9 -9 -21 -34 -26 -57 -10 -37 -14 -41 -50 -47 -26 -4 -45 -15 -55
-30 -8 -13 -40 -53 -71 -89 -31 -37 -66 -85 -78 -108 -11 -23 -21 -58 -21 -79
0 -29 8 -47 33 -74 19 -20 43 -40 55 -43 12 -4 31 -2 42 4 11 6 30 8 41 5 12
-4 35 0 53 8 17 8 72 35 123 59 84 41 94 44 121 32 17 -7 33 -22 37 -33 3 -12
19 -28 34 -35 15 -8 34 -22 41 -31 8 -10 37 -28 65 -41 27 -14 61 -31 75 -39
19 -12 44 -14 110 -9 47 4 97 13 112 20 15 8 40 14 55 14 16 0 37 6 48 14 11
7 38 16 59 19 22 4 43 12 47 19 6 9 39 14 98 16 79 4 92 7 112 28 12 13 30 24
40 24 9 0 22 7 30 16 7 8 29 24 50 34 20 11 52 37 70 58 19 22 44 44 55 50 12
6 31 31 42 55 12 25 27 47 35 50 8 3 24 24 36 46 11 23 21 48 21 56 0 8 10 36
21 62 12 27 28 61 36 76 8 16 12 39 9 52 -4 15 2 38 15 62 12 20 39 58 61 83
22 25 47 59 55 75 8 17 28 44 43 60 15 17 51 62 80 100 30 39 85 99 123 135
38 35 75 77 83 93 9 17 26 30 43 33 16 3 54 29 85 58 41 37 56 58 56 77 0 21
6 28 30 32 16 4 39 16 50 27 11 11 28 20 38 20 10 0 42 25 72 55 30 30 58 55
62 55 4 0 18 10 32 23 14 12 38 33 55 47 16 14 30 29 30 34 1 5 19 25 41 44
22 18 47 47 56 63 10 19 22 29 38 29 13 0 40 16 62 38 22 20 79 71 126 112 67
57 87 81 88 101 0 14 6 33 13 42 6 9 30 22 52 29 30 10 42 20 50 43 6 17 27
52 48 79 35 46 37 53 31 95 -4 25 -8 49 -11 54 -2 4 -14 7 -26 6 -12 0 -33 -8
-47 -17z m-1810 -1768 c0 -18 -7 -28 -27 -35 -18 -6 -40 -30 -60 -66 -18 -31
-33 -68 -33 -83 0 -15 -10 -36 -22 -47 -13 -12 -54 -38 -93 -58 -38 -21 -87
-46 -107 -56 -20 -11 -48 -19 -62 -19 -15 0 -44 -16 -71 -40 -25 -22 -47 -40
-48 -40 -1 -1 -38 -8 -82 -17 -44 -8 -103 -18 -132 -20 -38 -4 -63 1 -98 16
-27 12 -45 26 -43 33 3 7 21 16 40 19 20 3 60 21 89 41 30 19 64 38 75 42 12
4 29 15 39 26 10 11 30 20 44 20 15 0 34 9 44 20 9 11 25 20 35 20 11 0 27 9
38 21 10 12 30 27 44 34 14 6 54 18 89 26 52 11 68 19 80 41 11 18 26 28 46
30 23 2 35 12 50 40 18 34 24 38 61 38 28 0 47 6 59 20 10 11 24 20 32 20 7 0
13 -11 13 -26z"/>
</g>
</svg>
